<svg id="Capa_1" data-name="Capa 1" xmlns="http://www.w3.org/2000/svg" viewBox="0 0 366 366"><defs><style>.cls-1{fill:#dbad5a;}.cls-2{fill:#fff;}</style></defs><title>calendar-icon</title><circle class="cls-1" cx="183" cy="183" r="183"/><path class="cls-2" d="M450.37,317.69h-7.46V305.27H430.49v12.42h-82V305.27H336.09v12.42h-7.46A18.65,18.65,0,0,0,310,336.32V445.64a18.65,18.65,0,0,0,18.63,18.63H450.37A18.65,18.65,0,0,0,469,445.64V336.32A18.65,18.65,0,0,0,450.37,317.69Zm6.21,128a6.22,6.22,0,0,1-6.21,6.21H328.63a6.22,6.22,0,0,1-6.21-6.21v-82H456.58Zm0-94.41H322.42V336.32a6.22,6.22,0,0,1,6.21-6.21h7.46v12.43h12.42V330.11h82v12.43h12.42V330.11h7.46a6.22,6.22,0,0,1,6.21,6.21Z" transform="translate(-207 -199)"/><rect class="cls-2" x="126.6" y="177.7" width="12.42" height="12.42"/><rect class="cls-2" x="151.45" y="177.7" width="12.42" height="12.42"/><rect class="cls-2" x="176.29" y="177.7" width="12.42" height="12.42"/><rect class="cls-2" x="201.13" y="177.7" width="12.42" height="12.42"/><rect class="cls-2" x="225.98" y="177.7" width="12.42" height="12.42"/><rect class="cls-2" x="126.6" y="202.54" width="12.42" height="12.42"/><rect class="cls-2" x="151.45" y="202.54" width="12.42" height="12.42"/><rect class="cls-2" x="176.29" y="202.54" width="12.42" height="12.42"/><rect class="cls-2" x="201.13" y="202.54" width="12.42" height="12.42"/><rect class="cls-2" x="126.6" y="227.38" width="12.42" height="12.42"/><rect class="cls-2" x="151.45" y="227.38" width="12.42" height="12.42"/><rect class="cls-2" x="176.29" y="227.38" width="12.42" height="12.42"/><rect class="cls-2" x="201.13" y="227.38" width="12.42" height="12.42"/><rect class="cls-2" x="225.98" y="202.54" width="12.42" height="12.42"/></svg>