<svg id="Capa_1" data-name="Capa 1" xmlns="http://www.w3.org/2000/svg" viewBox="0 0 366 366"><defs><style>.cls-1{fill:#20bcbc;}.cls-2{fill:#f2f2f2;}</style></defs><title>dollar-icon</title><circle class="cls-1" cx="183" cy="183" r="183"/><path class="cls-2" d="M394.88,375.1H377.3a18.16,18.16,0,0,1,0-36.32h35.16a8.21,8.21,0,0,0,0-16.41H394.3V304.2a8.21,8.21,0,0,0-16.41,0v18.17h-.59a34.57,34.57,0,1,0,0,69.13h17.58a18.17,18.17,0,0,1,0,36.33H359.73a8.21,8.21,0,1,0,0,16.41h18.16V462.4a8.21,8.21,0,0,0,16.41,0V444.24h.58a34.57,34.57,0,0,0,0-69.14Z" transform="translate(-207 -199)"/></svg>