<svg xmlns="http://www.w3.org/2000/svg" xmlns:xlink="http://www.w3.org/1999/xlink" viewBox="0 0 230.41 222.3"><defs><style>.cls-1{isolation:isolate;}.cls-10,.cls-11,.cls-12,.cls-13,.cls-139,.cls-14,.cls-15,.cls-16,.cls-17,.cls-18,.cls-19,.cls-2,.cls-20,.cls-21,.cls-22,.cls-23,.cls-24,.cls-25,.cls-26,.cls-27,.cls-28,.cls-29,.cls-30,.cls-31,.cls-32,.cls-33,.cls-34,.cls-35,.cls-36,.cls-37,.cls-38,.cls-39,.cls-40,.cls-41,.cls-42,.cls-43,.cls-44,.cls-45,.cls-46,.cls-6,.cls-7,.cls-8,.cls-9{fill:#3c5185;}.cls-140,.cls-144,.cls-152,.cls-3,.cls-50,.cls-51,.cls-52,.cls-53{mix-blend-mode:multiply;}.cls-3{fill:url(#radial-gradient);}.cls-4{fill:#4a65a3;}.cls-132,.cls-5{opacity:0.3;}.cls-6,.cls-83{opacity:0;}.cls-7,.cls-84{opacity:0.02;}.cls-8,.cls-85{opacity:0.05;}.cls-86,.cls-9{opacity:0.07;}.cls-10,.cls-87{opacity:0.1;}.cls-11,.cls-88{opacity:0.12;}.cls-12,.cls-89{opacity:0.15;}.cls-13,.cls-90{opacity:0.17;}.cls-14,.cls-91{opacity:0.2;}.cls-15,.cls-92{opacity:0.22;}.cls-16,.cls-93{opacity:0.24;}.cls-17,.cls-94{opacity:0.27;}.cls-18,.cls-95{opacity:0.29;}.cls-19,.cls-96{opacity:0.32;}.cls-20,.cls-97{opacity:0.34;}.cls-21,.cls-98{opacity:0.37;}.cls-22,.cls-99{opacity:0.39;}.cls-100,.cls-23{opacity:0.41;}.cls-101,.cls-24{opacity:0.44;}.cls-102,.cls-25{opacity:0.46;}.cls-103,.cls-26{opacity:0.49;}.cls-104,.cls-27{opacity:0.51;}.cls-105,.cls-28{opacity:0.54;}.cls-106,.cls-29{opacity:0.56;}.cls-107,.cls-30{opacity:0.59;}.cls-108,.cls-31{opacity:0.61;}.cls-109,.cls-32{opacity:0.63;}.cls-110,.cls-33{opacity:0.66;}.cls-111,.cls-34{opacity:0.68;}.cls-112,.cls-35{opacity:0.71;}.cls-113,.cls-36{opacity:0.73;}.cls-114,.cls-37{opacity:0.76;}.cls-115,.cls-38{opacity:0.78;}.cls-116,.cls-39{opacity:0.8;}.cls-117,.cls-40{opacity:0.83;}.cls-118,.cls-41{opacity:0.85;}.cls-119,.cls-42{opacity:0.88;}.cls-120,.cls-43{opacity:0.9;}.cls-121,.cls-44{opacity:0.93;}.cls-122,.cls-45{opacity:0.95;}.cls-123,.cls-46{opacity:0.98;}.cls-47{fill:url(#linear-gradient);}.cls-48{fill:#f3f8fe;}.cls-49{fill:#a5cbef;}.cls-50,.cls-51,.cls-52,.cls-53{opacity:0.1;}.cls-50{fill:url(#linear-gradient-2);}.cls-51{fill:url(#linear-gradient-3);}.cls-52{fill:url(#linear-gradient-4);}.cls-53{fill:url(#linear-gradient-5);}.cls-54,.cls-83{fill:#fff;}.cls-55{fill:#9eb1d8;}.cls-56{fill:url(#linear-gradient-6);}.cls-57{fill:url(#linear-gradient-7);}.cls-58{fill:url(#linear-gradient-8);}.cls-59{fill:#c9e0f5;}.cls-60,.cls-64{opacity:0.4;}.cls-60{fill:url(#linear-gradient-9);}.cls-61{fill:url(#linear-gradient-10);}.cls-62{fill:url(#linear-gradient-11);}.cls-63{fill:url(#linear-gradient-12);}.cls-64{fill:url(#linear-gradient-13);}.cls-65{fill:url(#linear-gradient-14);}.cls-66{fill:url(#linear-gradient-15);}.cls-67{fill:url(#linear-gradient-16);}.cls-68{fill:#ffc107;}.cls-69{fill:url(#linear-gradient-17);}.cls-70{fill:url(#linear-gradient-18);}.cls-71{fill:#f6f9fc;}.cls-72{fill:#d1e1f2;}.cls-73{fill:url(#linear-gradient-19);}.cls-74{fill:url(#linear-gradient-20);}.cls-75{fill:url(#linear-gradient-21);}.cls-76{fill:url(#linear-gradient-22);}.cls-77{fill:url(#linear-gradient-23);}.cls-78{fill:url(#linear-gradient-24);}.cls-79{fill:url(#linear-gradient-25);}.cls-80{fill:url(#linear-gradient-26);}.cls-81{fill:url(#linear-gradient-27);}.cls-82{opacity:0.14;}.cls-84{fill:#fafbfc;}.cls-85{fill:#f5f7f9;}.cls-86{fill:#f1f2f6;}.cls-87{fill:#eceef3;}.cls-88{fill:#e7eaf0;}.cls-89{fill:#e2e6ed;}.cls-90{fill:#dee1ea;}.cls-91{fill:#d9dde7;}.cls-92{fill:#d4d9e4;}.cls-93{fill:#cfd5e1;}.cls-94{fill:#cbd0de;}.cls-95{fill:#c6ccdb;}.cls-96{fill:#c1c8d8;}.cls-97{fill:#bcc4d5;}.cls-98{fill:#b8bfd2;}.cls-99{fill:#b3bbcf;}.cls-100{fill:#aeb7cc;}.cls-101{fill:#a9b3c9;}.cls-102{fill:#a5aec6;}.cls-103{fill:#a0aac3;}.cls-104{fill:#9ba6c1;}.cls-105{fill:#96a2be;}.cls-106{fill:#929dbb;}.cls-107{fill:#8d99b8;}.cls-108{fill:#8895b5;}.cls-109{fill:#8391b2;}.cls-110{fill:#7f8caf;}.cls-111{fill:#7a88ac;}.cls-112{fill:#7584a9;}.cls-113{fill:#7080a6;}.cls-114{fill:#6c7ba3;}.cls-115{fill:#6777a0;}.cls-116{fill:#62739d;}.cls-117{fill:#5d6f9a;}.cls-118{fill:#596a97;}.cls-119{fill:#546694;}.cls-120,.cls-147{fill:#4f6291;}.cls-121{fill:#4a5e8e;}.cls-122{fill:#46598b;}.cls-123{fill:#415588;}.cls-124{fill:url(#linear-gradient-28);}.cls-125{fill:#edf5fc;}.cls-126{fill:#5d7dbe;}.cls-127{fill:#f9f7f9;}.cls-128{fill:#ef9ea3;}.cls-129{fill:url(#linear-gradient-29);}.cls-130{fill:url(#linear-gradient-30);}.cls-131{fill:url(#linear-gradient-31);}.cls-132{fill:#231f20;}.cls-133{fill:#f2b1b5;}.cls-134{fill:#63749d;}.cls-135{fill:#48486a;}.cls-136{fill:url(#linear-gradient-32);}.cls-137{fill:url(#linear-gradient-33);}.cls-138{fill:url(#linear-gradient-34);}.cls-139{opacity:0.2;}.cls-140{fill:url(#radial-gradient-2);}.cls-141{fill:url(#linear-gradient-35);}.cls-142{fill:url(#linear-gradient-36);}.cls-143{fill:url(#linear-gradient-37);}.cls-144{fill:url(#radial-gradient-3);}.cls-145{fill:url(#linear-gradient-38);}.cls-146{fill:url(#linear-gradient-39);}.cls-148{fill:url(#linear-gradient-40);}.cls-149{fill:url(#linear-gradient-41);}.cls-150{fill:#b7d5f2;}.cls-151{fill:#dbeaf9;}.cls-152{opacity:0.5;fill:url(#radial-gradient-4);}.cls-153{fill:#2842a2;}.cls-154{opacity:0.83;fill:url(#linear-gradient-42);}.cls-155{fill:#6e84b5;opacity:0.49;}.cls-156{fill:url(#linear-gradient-43);}</style><radialGradient id="radial-gradient" cx="556.6" cy="8193.07" r="14.03" gradientTransform="translate(0 -3707.78) scale(1 0.52)" gradientUnits="userSpaceOnUse"><stop offset="0" stop-color="#3c5185"/><stop offset="0.06" stop-color="#506291"/><stop offset="0.25" stop-color="#8d9ab8"/><stop offset="0.43" stop-color="#bec5d7"/><stop offset="0.59" stop-color="#e2e5ed"/><stop offset="0.72" stop-color="#f7f8fa"/><stop offset="0.8" stop-color="#fff"/></radialGradient><linearGradient id="linear-gradient" x1="751.18" y1="489.97" x2="541.66" y2="397.57" gradientTransform="matrix(-1, 0, 0, 1, 1235.68, 0)" gradientUnits="userSpaceOnUse"><stop offset="0.04" stop-color="#a5cbef"/><stop offset="0.22" stop-color="#b9d7f2"/><stop offset="0.53" stop-color="#d4e6f7"/><stop offset="0.79" stop-color="#e4f0fa"/><stop offset="1" stop-color="#eaf3fb"/></linearGradient><linearGradient id="linear-gradient-2" x1="86.32" y1="31.49" x2="85.97" y2="169.6" gradientUnits="userSpaceOnUse"><stop offset="0.06" stop-color="#fff"/><stop offset="0.1" stop-color="#fffdf7"/><stop offset="0.16" stop-color="#fff8e1"/><stop offset="0.23" stop-color="#ffefbd"/><stop offset="0.31" stop-color="#ffe28b"/><stop offset="0.4" stop-color="#ffd24d"/><stop offset="0.48" stop-color="#ffc107"/><stop offset="0.5" stop-color="#ffc61a"/><stop offset="0.55" stop-color="#ffd556"/><stop offset="0.61" stop-color="#ffe28a"/><stop offset="0.66" stop-color="#ffecb4"/><stop offset="0.71" stop-color="#fff4d5"/><stop offset="0.75" stop-color="#fffaec"/><stop offset="0.8" stop-color="#fffefa"/><stop offset="0.83" stop-color="#fff"/></linearGradient><linearGradient id="linear-gradient-3" x1="97.98" y1="29.72" x2="97.69" y2="144.58" xlink:href="#linear-gradient-2"/><linearGradient id="linear-gradient-4" x1="142.68" y1="29.25" x2="142.36" y2="156.91" xlink:href="#linear-gradient-2"/><linearGradient id="linear-gradient-5" x1="154.38" y1="33.2" x2="154.04" y2="168.04" xlink:href="#linear-gradient-2"/><linearGradient id="linear-gradient-6" x1="79.75" y1="122.34" x2="113.46" y2="122.34" gradientUnits="userSpaceOnUse"><stop offset="0" stop-color="#3c5185"/><stop offset="1" stop-color="#5d7dbe"/></linearGradient><linearGradient id="linear-gradient-7" x1="129.78" y1="122.34" x2="163.49" y2="122.34" xlink:href="#linear-gradient-6"/><linearGradient id="linear-gradient-8" x1="573.86" y1="346.14" x2="575.37" y2="316.57" xlink:href="#linear-gradient-6"/><linearGradient id="linear-gradient-9" x1="524.95" y1="380.26" x2="623.69" y2="380.26" gradientUnits="userSpaceOnUse"><stop offset="0.14" stop-color="#ff9800"/><stop offset="0.73" stop-color="#f6cf2e"/></linearGradient><linearGradient id="linear-gradient-10" x1="523.68" y1="380.14" x2="526.9" y2="383.36" gradientUnits="userSpaceOnUse"><stop offset="0" stop-color="#ffc107"/><stop offset="0.85" stop-color="#ff9800"/></linearGradient><linearGradient id="linear-gradient-11" x1="542.84" y1="395.04" x2="545.25" y2="397.45" xlink:href="#linear-gradient-10"/><linearGradient id="linear-gradient-12" x1="584.73" y1="399.48" x2="586.29" y2="401.04" xlink:href="#linear-gradient-10"/><linearGradient id="linear-gradient-13" x1="534.18" y1="362.97" x2="614.18" y2="362.97" xlink:href="#linear-gradient-9"/><linearGradient id="linear-gradient-14" x1="547.59" y1="374.23" x2="550.2" y2="376.84" xlink:href="#linear-gradient-10"/><linearGradient id="linear-gradient-15" x1="585.69" y1="377.71" x2="587.65" y2="379.67" xlink:href="#linear-gradient-10"/><linearGradient id="linear-gradient-16" x1="608.54" y1="369.41" x2="609.81" y2="370.68" xlink:href="#linear-gradient-10"/><linearGradient id="linear-gradient-17" x1="544.9" y1="435.64" x2="576.49" y2="435.64" gradientTransform="matrix(-1, 0, 0, 1, 593.18, -315)" gradientUnits="userSpaceOnUse"><stop offset="0" stop-color="#f2f4fa"/><stop offset="0.87" stop-color="#d6e4f3"/><stop offset="1" stop-color="#d1e1f2"/></linearGradient><linearGradient id="linear-gradient-18" x1="561.97" y1="439.35" x2="562.12" y2="418.66" gradientTransform="matrix(-1, 0, 0, 1, 1045.54, 0)" gradientUnits="userSpaceOnUse"><stop offset="0" stop-color="#f2f4fa"/><stop offset="0.92" stop-color="#d6dcee"/><stop offset="1" stop-color="#d3daed"/></linearGradient><linearGradient id="linear-gradient-19" x1="531.82" y1="402.02" x2="593.18" y2="402.02" gradientTransform="matrix(-1, 0, 0, 1, 1045.54, 0)" gradientUnits="userSpaceOnUse"><stop offset="0" stop-color="#3c5185"/><stop offset="0.27" stop-color="#476098"/><stop offset="0.73" stop-color="#5775b4"/><stop offset="1" stop-color="#5d7dbe"/></linearGradient><linearGradient id="linear-gradient-20" x1="9.42" y1="81.9" x2="36.44" y2="66.06" gradientUnits="userSpaceOnUse"><stop offset="0.15" stop-color="#ff9800"/><stop offset="1" stop-color="#ffc107"/></linearGradient><linearGradient id="linear-gradient-21" x1="17.52" y1="95.73" x2="44.55" y2="79.89" xlink:href="#linear-gradient-20"/><linearGradient id="linear-gradient-22" x1="12.01" y1="86.33" x2="39.04" y2="70.49" xlink:href="#linear-gradient-20"/><linearGradient id="linear-gradient-23" x1="14.78" y1="91.06" x2="41.81" y2="75.21" xlink:href="#linear-gradient-20"/><linearGradient id="linear-gradient-24" x1="20.28" y1="100.43" x2="47.31" y2="84.59" xlink:href="#linear-gradient-20"/><linearGradient id="linear-gradient-25" x1="20.27" y1="100.42" x2="47.3" y2="84.57" xlink:href="#linear-gradient-20"/><linearGradient id="linear-gradient-26" x1="17.65" y1="95.94" x2="44.67" y2="80.1" xlink:href="#linear-gradient-20"/><linearGradient id="linear-gradient-27" x1="13.5" y1="88.86" x2="40.52" y2="73.02" xlink:href="#linear-gradient-20"/><linearGradient id="linear-gradient-28" x1="593.07" y1="470.09" x2="644.47" y2="470.09" gradientUnits="userSpaceOnUse"><stop offset="0" stop-color="#5d7dbe"/><stop offset="1" stop-color="#3c5185"/></linearGradient><linearGradient id="linear-gradient-29" x1="1126.62" y1="492.84" x2="1132.44" y2="492.84" gradientTransform="matrix(-1, 0, 0, 1, 1622.05, 0)" gradientUnits="userSpaceOnUse"><stop offset="0" stop-color="#a8d9fb"/><stop offset="1" stop-color="#fff"/></linearGradient><linearGradient id="linear-gradient-30" x1="1120.63" y1="493.73" x2="1132.44" y2="493.73" xlink:href="#linear-gradient-29"/><linearGradient id="linear-gradient-31" x1="1120.63" y1="496.15" x2="1124.36" y2="496.15" xlink:href="#linear-gradient-29"/><linearGradient id="linear-gradient-32" x1="632.62" y1="501.62" x2="638.67" y2="501.62" gradientUnits="userSpaceOnUse"><stop offset="0" stop-color="#5d7dbe"/><stop offset="1" stop-color="#3c5185"/></linearGradient><linearGradient id="linear-gradient-33" x1="625.88" y1="503.54" x2="635.22" y2="503.54" xlink:href="#linear-gradient-32"/><linearGradient id="linear-gradient-34" x1="613.67" y1="486.32" x2="639.05" y2="486.32" gradientUnits="userSpaceOnUse"><stop offset="0" stop-color="#fff"/><stop offset="0.18" stop-color="#f9fcff"/><stop offset="0.43" stop-color="#e8f5fe"/><stop offset="0.71" stop-color="#cce9fd"/><stop offset="1" stop-color="#a8d9fb"/></linearGradient><radialGradient id="radial-gradient-2" cx="251.65" cy="8056.73" r="9.9" gradientTransform="matrix(-1, 0, 0, 0.52, 923.63, -3707.42)" gradientUnits="userSpaceOnUse"><stop offset="0.09" stop-color="#3c5185"/><stop offset="0.16" stop-color="#506291"/><stop offset="0.38" stop-color="#8d9ab8"/><stop offset="0.58" stop-color="#bec5d7"/><stop offset="0.76" stop-color="#e2e5ed"/><stop offset="0.91" stop-color="#f7f8fa"/><stop offset="1" stop-color="#fff"/></radialGradient><linearGradient id="linear-gradient-35" x1="725.91" y1="459.23" x2="739.93" y2="459.23" gradientTransform="translate(-60.81)" gradientUnits="userSpaceOnUse"><stop offset="0" stop-color="#a5cbef"/><stop offset="0.44" stop-color="#cee3f6"/><stop offset="1" stop-color="#fff"/></linearGradient><linearGradient id="linear-gradient-36" x1="244.51" y1="458.94" x2="248.03" y2="458.94" gradientTransform="matrix(-1, 0, 0, 1, 923.63, 0)" xlink:href="#linear-gradient-20"/><linearGradient id="linear-gradient-37" x1="244.51" y1="456.8" x2="251.52" y2="456.8" gradientTransform="matrix(-1, 0, 0, 1, 923.63, 0)" xlink:href="#linear-gradient-20"/><radialGradient id="radial-gradient-3" cx="266.95" cy="8075.29" r="9.18" gradientTransform="matrix(-1, 0, 0, 0.52, 471.28, -4022.42)" xlink:href="#radial-gradient-2"/><linearGradient id="linear-gradient-38" x1="710.44" y1="468.34" x2="724.52" y2="468.34" xlink:href="#linear-gradient-35"/><linearGradient id="linear-gradient-39" x1="270.35" y1="468.4" x2="276.19" y2="463.56" gradientTransform="matrix(-1, 0, 0, 1, 923.63, 0)" xlink:href="#linear-gradient-20"/><linearGradient id="linear-gradient-40" x1="266.95" y1="464.89" x2="274" y2="464.89" gradientTransform="matrix(-1, 0, 0, 1, 923.63, 0)" xlink:href="#linear-gradient-20"/><linearGradient id="linear-gradient-41" x1="266.95" y1="467.38" x2="271.94" y2="467.38" gradientTransform="matrix(-1, 0, 0, 1, 471.28, -315)" xlink:href="#linear-gradient-20"/><radialGradient id="radial-gradient-4" cx="652.59" cy="7918.11" r="9.41" gradientTransform="translate(0 -3707.78) scale(1 0.52)" gradientUnits="userSpaceOnUse"><stop offset="0" stop-color="#3c5185"/><stop offset="0.11" stop-color="#596b97"/><stop offset="0.41" stop-color="#a0aac3"/><stop offset="0.65" stop-color="#d3d8e4"/><stop offset="0.83" stop-color="#f3f4f8"/><stop offset="0.94" stop-color="#fff"/></radialGradient><linearGradient id="linear-gradient-42" x1="645.77" y1="371.25" x2="659.45" y2="371.25" gradientUnits="userSpaceOnUse"><stop offset="0.02" stop-color="#ffc107"/><stop offset="0.14" stop-color="#ffbc06"/><stop offset="1" stop-color="#ff9800"/></linearGradient><linearGradient id="linear-gradient-43" x1="641.35" y1="361.92" x2="663.93" y2="361.92" xlink:href="#linear-gradient-42"/></defs><title>icon-techedge</title><g class="cls-1"><g id="Capa_1" data-name="Capa 1"><path class="cls-2" d="M522.21,438.28l-14.87-8.59a10.18,10.18,0,0,1-5.09-8.8V410.55h1v10.34a9.15,9.15,0,0,0,4.57,7.91l14.87,8.59Z" transform="translate(-452.35 -315)"/><path class="cls-2" d="M525,436.91l-14.87-8.59a10.18,10.18,0,0,1-5.09-8.8V409.18h1v10.34a9.15,9.15,0,0,0,4.57,7.91L525.46,436Z" transform="translate(-452.35 -315)"/><path class="cls-3" d="M546.77,523.62c5.41-3.12,14.25-3.12,19.65,0s5.41,8.22,0,11.34-14.24,3.12-19.65,0S541.37,526.74,546.77,523.62Z" transform="translate(-452.35 -315)"/><path class="cls-2" d="M570,524.57c0-.28-.4-.51-.9-.51h-1.91c-.32,0-.84.33-.92.23s-.09-.36.14-.49l1.35-.78c.35-.2-1.88-.11-2.23-.31l0-1.69a1.42,1.42,0,0,0-1.27,0l-1.36.79a1.2,1.2,0,0,1-.82.09l-.58-.14c-.29-.06-.47-.22-.47-.4v-1.11c0-.28-.41-.52-.9-.52h-3.12c-.5,0-.9.24-.9.52v1.1c0,.19-.21.34-.5.41l-.56.13a1.17,1.17,0,0,1-.85-.08l-1.36-.78a1.42,1.42,0,0,0-1.27,0l-.16,1.84c-.35.21-2.39,0-2,.17l1.37.78c.22.13.28.31.16.47s-.62-.22-.92-.22h-1.94c-.49,0-.89.23-.89.51v2.63c0,.28.41.51.9.51h1.13l0,2.17a.21.21,0,0,0,0,.11h0a.44.44,0,0,0,.25.31l2.22,1.27a1.35,1.35,0,0,0,.78.14h0a1.06,1.06,0,0,0,.47-.13l1.36-.79a1.19,1.19,0,0,1,.82-.09l.58.14c.29.06.47.22.47.4v1.11c0,.28.4.52.9.51h3.12c.49,0,.89-.23.89-.52v-1.1c0-.18.2-.34.5-.4l.53-.13a1.22,1.22,0,0,1,.85.08l1.36.78a1.12,1.12,0,0,0,.46.13v0l0,0a1.35,1.35,0,0,0,.78-.13l2.2-1.27a.47.47,0,0,0,.25-.3h0v-.07l0-2.22h1.1c.49,0,.9-.23.9-.51ZM563,526.76c-.52,1.59-3.38,2.49-6,1.92-2-.44-3.14-1.65-2.75-2.83.51-1.59,3.37-2.49,5.94-1.92C562.16,524.36,563.35,525.58,563,526.76Z" transform="translate(-452.35 -315)"/><path class="cls-2" d="M568.05,521.59v-1.41h-2l-.45-.26a1.42,1.42,0,0,0-1.27,0l-.44.26h-2.79v-1c0-.29-.41-.52-.9-.52h-3.12c-.5,0-.9.23-.9.52v1h-2.84l-.43-.25a1.42,1.42,0,0,0-1.27,0l-.42.25h-2v1.38a.46.46,0,0,0,.26.38l1.37.78,15.65,0,1.35-.78a.45.45,0,0,0,.26-.33Z" transform="translate(-452.35 -315)"/><path class="cls-4" d="M566.68,525.23h2.45c.49,0,.9-.23.9-.51v-1.8c0-.29-.4-.52-.89-.52h-1.92a.84.84,0,0,1-.7-.28,3.46,3.46,0,0,0-.22-.31c-.13-.16-.09-.36.14-.49l1.35-.78a.39.39,0,0,0,0-.73l-2.21-1.27a1.42,1.42,0,0,0-1.27,0l-1.36.79a1.2,1.2,0,0,1-.82.09l-.58-.14c-.29-.06-.47-.22-.47-.4v-1.11c0-.29-.41-.52-.9-.52h-3.12c-.5,0-.9.23-.9.52v1.1c0,.19-.21.34-.5.41l-.56.13a1.17,1.17,0,0,1-.85-.08l-1.36-.78a1.42,1.42,0,0,0-1.27,0l-2.2,1.28a.39.39,0,0,0,0,.73l1.37.78c.22.13.28.31.16.47l-.23.34a.87.87,0,0,1-.69.27h-1.94c-.49,0-.89.24-.89.52v1.8c0,.28.41.51.9.51H550a.84.84,0,0,1,.7.29l.22.3c.14.17.09.36-.14.49l-1.35.78c-.35.21-.35.53,0,.73l2.22,1.27a1.42,1.42,0,0,0,1.27,0l1.36-.79a1.19,1.19,0,0,1,.82-.09l.58.14c.29.06.47.22.47.39v1.12c0,.28.4.51.9.51h3.12c.49,0,.89-.23.89-.52v-1.1c0-.18.2-.34.5-.4l.53-.13a1.17,1.17,0,0,1,.85.08l1.36.78a1.42,1.42,0,0,0,1.27,0l2.2-1.27a.39.39,0,0,0,0-.73l-1.37-.79c-.21-.12-.27-.31-.15-.47S566.67,525.25,566.68,525.23Zm-12.42-1.87c.51-1.58,3.37-2.48,5.94-1.91,2,.43,3.15,1.65,2.76,2.83-.52,1.59-3.38,2.49-6,1.92C555.06,525.76,553.87,524.55,554.26,523.36Z" transform="translate(-452.35 -315)"/><g class="cls-5"><path class="cls-6" d="M682.1,434.36l-.39-.81a4,4,0,0,0-1.12-1.32l-.28-.22a1.83,1.83,0,0,0-.16-.13l-.11-.06a2.93,2.93,0,0,0-.34-.24l-69.53-40.15a10.21,10.21,0,0,0-9.2,0L468.45,467.94c-1.55.9-2.14,2.15-1.79,3.32l-.11.06v2.53a7.41,7.41,0,0,0,3.72,6.42l67.71,39a10.21,10.21,0,0,0,9.2,0l132.31-76.36A6.55,6.55,0,0,0,682.1,434.36Z" transform="translate(-452.35 -315)"/><path class="cls-7" d="M681.62,434.31l-.39-.81a3.9,3.9,0,0,0-1.11-1.31l-.28-.22a1.09,1.09,0,0,0-.17-.13l-.1-.06a4.15,4.15,0,0,0-.34-.24l-69.16-39.93a10.1,10.1,0,0,0-9.15,0l-132,76.25c-1.54.89-2.13,2.13-1.78,3.29l-.11.07v2.51a7.36,7.36,0,0,0,3.7,6.39L538,518.89a10.19,10.19,0,0,0,9.16,0L679,442.79A6.51,6.51,0,0,0,681.62,434.31Z" transform="translate(-452.35 -315)"/><path class="cls-8" d="M681.14,434.25l-.4-.8a3.63,3.63,0,0,0-1.1-1.3,3.45,3.45,0,0,0-.28-.23c-.06,0-.1-.09-.16-.12l-.1-.06a4.15,4.15,0,0,0-.34-.24L610,391.78a10.08,10.08,0,0,0-9.11,0l-131.57,76c-1.53.89-2.12,2.12-1.77,3.27l-.1.07v2.5a7.33,7.33,0,0,0,3.67,6.35l67,38.56a10.06,10.06,0,0,0,9.1,0l131.36-75.84A6.49,6.49,0,0,0,681.14,434.25Z" transform="translate(-452.35 -315)"/><path class="cls-9" d="M680.65,434.2l-.39-.8a3.79,3.79,0,0,0-1.09-1.3l-.28-.22-.16-.13-.1-.06c-.12-.07-.21-.16-.34-.23L609.87,392a10,10,0,0,0-9.06,0L469.72,467.7c-1.53.88-2.11,2.1-1.76,3.25l-.11.07v2.48a7.29,7.29,0,0,0,3.65,6.32l66.64,38.36a10,10,0,0,0,9.06,0l130.88-75.6A6.42,6.42,0,0,0,680.65,434.2Z" transform="translate(-452.35 -315)"/><path class="cls-10" d="M680.17,434.14l-.39-.79a3.67,3.67,0,0,0-1.09-1.29,2.09,2.09,0,0,0-.28-.22,1,1,0,0,0-.16-.13l-.1-.06a2.75,2.75,0,0,0-.33-.23l-68.06-39.3a10,10,0,0,0-9,0L470.14,467.61c-1.52.88-2.1,2.1-1.75,3.24l-.11.07v2.47a7.27,7.27,0,0,0,3.64,6.29l66.27,38.14a10,10,0,0,0,9,0l130.41-75.34A6.4,6.4,0,0,0,680.17,434.14Z" transform="translate(-452.35 -315)"/><path class="cls-11" d="M679.68,434.09l-.38-.8a3.81,3.81,0,0,0-1.08-1.28l-.28-.22c-.06,0-.1-.09-.16-.12l-.1-.06-.33-.24L609.66,392.3a9.89,9.89,0,0,0-9,0L470.56,467.53c-1.51.87-2.09,2.09-1.74,3.22l-.11.06v2.46a7.23,7.23,0,0,0,3.62,6.26l65.92,37.94a10,10,0,0,0,9,0l129.93-75.09A6.36,6.36,0,0,0,679.68,434.09Z" transform="translate(-452.35 -315)"/><path class="cls-12" d="M679.2,434l-.38-.79a3.78,3.78,0,0,0-1.08-1.27,2.88,2.88,0,0,0-.27-.22,1.67,1.67,0,0,0-.16-.12l-.1-.06-.33-.24-67.32-38.86a9.85,9.85,0,0,0-8.91,0L471,467.45c-1.5.86-2.07,2.07-1.73,3.2l-.1.06v2.45a7.18,7.18,0,0,0,3.59,6.22l65.56,37.73a9.85,9.85,0,0,0,8.91,0l129.46-74.83A6.33,6.33,0,0,0,679.2,434Z" transform="translate(-452.35 -315)"/><path class="cls-13" d="M678.72,434l-.38-.79a3.86,3.86,0,0,0-1.07-1.27l-.28-.21-.15-.13-.11-.05-.32-.24-66.95-38.65a9.81,9.81,0,0,0-8.86,0L471.41,467.36c-1.5.87-2.07,2.07-1.73,3.19l-.1.06v2.44a7.12,7.12,0,0,0,3.58,6.18l65.19,37.53a9.87,9.87,0,0,0,8.86,0l129-74.58A6.3,6.3,0,0,0,678.72,434Z" transform="translate(-452.35 -315)"/><path class="cls-14" d="M678.23,433.92l-.37-.78a3.81,3.81,0,0,0-1.07-1.26l-.27-.22c-.06,0-.1-.09-.16-.12l-.1-.06c-.11-.07-.2-.16-.32-.23l-66.58-38.44a9.77,9.77,0,0,0-8.81,0L471.83,467.28c-1.49.86-2.05,2.05-1.71,3.17l-.11.06v2.42a7.1,7.1,0,0,0,3.56,6.15l64.84,37.32a9.77,9.77,0,0,0,8.81,0l128.51-74.32A6.25,6.25,0,0,0,678.23,433.92Z" transform="translate(-452.35 -315)"/><path class="cls-15" d="M677.75,433.86l-.38-.77a3.55,3.55,0,0,0-1.06-1.25,2,2,0,0,0-.27-.22s-.09-.09-.15-.12l-.1-.06c-.11-.07-.2-.16-.33-.23L609.26,393a9.68,9.68,0,0,0-8.77,0L472.25,467.2c-1.48.85-2,2-1.7,3.15l-.1.06v2.41a7,7,0,0,0,3.53,6.11l64.48,37.12a9.72,9.72,0,0,0,8.76,0l128-74.07A6.23,6.23,0,0,0,677.75,433.86Z" transform="translate(-452.35 -315)"/><path class="cls-16" d="M677.27,433.81l-.38-.77a3.62,3.62,0,0,0-1-1.25l-.27-.21-.15-.12-.1-.06a2.75,2.75,0,0,0-.33-.23l-65.84-38a9.62,9.62,0,0,0-8.71,0L472.67,467.11c-1.47.85-2,2-1.69,3.14l-.1.06v2.39a7,7,0,0,0,3.51,6.08l64.12,36.91a9.7,9.7,0,0,0,8.72,0l127.56-73.81A6.19,6.19,0,0,0,677.27,433.81Z" transform="translate(-452.35 -315)"/><path class="cls-17" d="M676.78,433.75l-.37-.76a3.59,3.59,0,0,0-1-1.24,2.65,2.65,0,0,0-.26-.21l-.16-.13-.1-.05a2.62,2.62,0,0,0-.32-.23l-65.47-37.8a9.64,9.64,0,0,0-8.66,0L473.1,467c-1.47.85-2,2-1.69,3.12l-.1.06v2.38a7,7,0,0,0,3.5,6.05l63.76,36.69a9.57,9.57,0,0,0,8.66,0l127.09-73.55A6.17,6.17,0,0,0,676.78,433.75Z" transform="translate(-452.35 -315)"/><path class="cls-18" d="M676.3,433.7l-.37-.76a3.67,3.67,0,0,0-1-1.24l-.27-.21s-.09-.09-.15-.12l-.1-.05a3.71,3.71,0,0,0-.32-.23L609,393.5a9.59,9.59,0,0,0-8.61,0L473.52,467c-1.45.84-2,2-1.68,3.1l-.1.06v2.36a7,7,0,0,0,3.48,6L538.62,515a9.55,9.55,0,0,0,8.62,0l126.61-73.3A6.13,6.13,0,0,0,676.3,433.7Z" transform="translate(-452.35 -315)"/><path class="cls-19" d="M675.82,433.64l-.37-.76a3.5,3.5,0,0,0-1-1.22l-.26-.21-.15-.12-.1-.06c-.11-.07-.2-.15-.32-.22l-64.73-37.37a9.51,9.51,0,0,0-8.57,0L473.94,466.86c-1.44.84-2,2-1.66,3.09l-.1.06v2.35a6.89,6.89,0,0,0,3.45,6l63,36.28a9.51,9.51,0,0,0,8.57,0l126.14-73A6.1,6.1,0,0,0,675.82,433.64Z" transform="translate(-452.35 -315)"/><path class="cls-20" d="M675.33,433.59l-.36-.76a3.67,3.67,0,0,0-1-1.22c-.08-.07-.18-.13-.27-.2a.88.88,0,0,0-.15-.12l-.09-.06c-.11-.07-.2-.15-.32-.22l-64.36-37.16a9.47,9.47,0,0,0-8.52,0L474.36,466.78c-1.43.83-2,2-1.65,3.07l-.1.06v2.33a6.85,6.85,0,0,0,3.44,5.95l62.68,36.08a9.47,9.47,0,0,0,8.52,0l125.66-72.79A6.06,6.06,0,0,0,675.33,433.59Z" transform="translate(-452.35 -315)"/><path class="cls-21" d="M674.85,433.53l-.37-.75a3.5,3.5,0,0,0-1-1.21l-.26-.21-.15-.12-.1-.05c-.1-.07-.19-.15-.31-.22l-64-37a9.43,9.43,0,0,0-8.47,0L474.79,466.7c-1.43.82-2,2-1.65,3.05l-.1.05v2.33a6.81,6.81,0,0,0,3.42,5.91l62.32,35.87a9.36,9.36,0,0,0,8.47,0l125.19-72.54A6,6,0,0,0,674.85,433.53Z" transform="translate(-452.35 -315)"/><path class="cls-22" d="M674.36,433.47l-.36-.74a3.46,3.46,0,0,0-1-1.2,2.52,2.52,0,0,0-.25-.21c-.06,0-.1-.09-.15-.12l-.1-.05a2.18,2.18,0,0,0-.31-.22l-63.63-36.74a9.38,9.38,0,0,0-8.42,0L475.21,466.62c-1.42.82-2,2-1.64,3l-.1.05V472a6.78,6.78,0,0,0,3.4,5.87l62,35.67a9.38,9.38,0,0,0,8.42,0L672,441.27A6,6,0,0,0,674.36,433.47Z" transform="translate(-452.35 -315)"/><path class="cls-23" d="M673.88,433.42l-.36-.74a3.54,3.54,0,0,0-1-1.2l-.26-.2a.88.88,0,0,0-.15-.12l-.09-.06a3.37,3.37,0,0,0-.31-.21l-63.26-36.53a9.34,9.34,0,0,0-8.37,0L475.63,466.53c-1.41.82-1.95,2-1.63,3l-.09.06v2.3a6.73,6.73,0,0,0,3.37,5.84l61.61,35.46a9.28,9.28,0,0,0,8.37,0l124.24-72A5.94,5.94,0,0,0,673.88,433.42Z" transform="translate(-452.35 -315)"/><path class="cls-24" d="M673.4,433.36l-.36-.73a3.32,3.32,0,0,0-1-1.19c-.07-.07-.17-.14-.25-.21s-.1-.08-.15-.11l-.09-.06-.31-.22-62.89-36.3a9.24,9.24,0,0,0-8.32,0l-124,71.91c-1.41.81-1.94,1.94-1.62,3l-.1.06v2.29a6.72,6.72,0,0,0,3.36,5.81l61.24,35.25a9.24,9.24,0,0,0,8.32,0L671,441.07A5.92,5.92,0,0,0,673.4,433.36Z" transform="translate(-452.35 -315)"/><path class="cls-25" d="M672.91,433.31l-.35-.73a3.48,3.48,0,0,0-1-1.19l-.26-.2a1.49,1.49,0,0,1-.14-.12l-.1-.05c-.1-.07-.19-.15-.3-.22l-62.52-36.09a9.19,9.19,0,0,0-8.27,0L476.48,466.37c-1.4.8-1.93,1.92-1.61,3l-.1.06v2.27a6.66,6.66,0,0,0,3.34,5.78l60.88,35a9.21,9.21,0,0,0,8.28,0L670.56,441A5.87,5.87,0,0,0,672.91,433.31Z" transform="translate(-452.35 -315)"/><path class="cls-26" d="M672.43,433.25l-.35-.72a3.36,3.36,0,0,0-1-1.18c-.07-.07-.17-.13-.25-.2a.88.88,0,0,0-.15-.12l-.09,0c-.1-.07-.19-.15-.31-.22l-62.14-35.88a9.17,9.17,0,0,0-8.23,0l-123,71.4c-1.39.8-1.92,1.92-1.6,3l-.1.06v2.26a6.63,6.63,0,0,0,3.32,5.74l60.53,34.84a9.15,9.15,0,0,0,8.22,0l122.82-71.27A5.85,5.85,0,0,0,672.43,433.25Z" transform="translate(-452.35 -315)"/><path class="cls-27" d="M672,433.2l-.35-.73a3.7,3.7,0,0,0-1-1.17l-.26-.2-.14-.11-.09-.05c-.11-.07-.19-.15-.31-.22L608,395.05a9.13,9.13,0,0,0-8.18,0L477.32,466.2c-1.38.8-1.9,1.9-1.59,2.94l-.09.06v2.24a6.58,6.58,0,0,0,3.3,5.71l60.16,34.63a9.07,9.07,0,0,0,8.18,0l122.34-71A5.81,5.81,0,0,0,672,433.2Z" transform="translate(-452.35 -315)"/><path class="cls-28" d="M671.46,433.14l-.35-.72a3.42,3.42,0,0,0-1-1.16c-.07-.07-.17-.13-.25-.2l-.14-.11-.1-.06c-.1-.07-.18-.14-.3-.21l-61.41-35.45a9,9,0,0,0-8.12,0L477.75,466.12c-1.38.79-1.9,1.89-1.59,2.92l-.09.06v2.23a6.54,6.54,0,0,0,3.28,5.67l59.8,34.42a9,9,0,0,0,8.13,0l121.87-70.75A5.77,5.77,0,0,0,671.46,433.14Z" transform="translate(-452.35 -315)"/><path class="cls-29" d="M671,433.09l-.35-.72a3.19,3.19,0,0,0-1-1.15,2.31,2.31,0,0,0-.24-.2c-.06,0-.09-.08-.15-.11l-.09-.06c-.1-.07-.18-.14-.3-.21l-61-35.24a9,9,0,0,0-8.08,0L478.17,466c-1.37.79-1.88,1.89-1.57,2.91l-.1.06v2.21a6.52,6.52,0,0,0,3.26,5.64l59.45,34.22a9,9,0,0,0,8.08,0l121.39-70.5A5.74,5.74,0,0,0,671,433.09Z" transform="translate(-452.35 -315)"/><path class="cls-30" d="M670.5,433l-.35-.71a3.35,3.35,0,0,0-1-1.15,1.64,1.64,0,0,0-.25-.19,1.49,1.49,0,0,0-.14-.12l-.09-.05-.3-.21-60.67-35a8.94,8.94,0,0,0-8,0L478.59,466c-1.36.78-1.87,1.87-1.56,2.89l-.1.06v2.2a6.46,6.46,0,0,0,3.25,5.6l59.08,34a8.88,8.88,0,0,0,8,0l120.92-70.24A5.72,5.72,0,0,0,670.5,433Z" transform="translate(-452.35 -315)"/><path class="cls-31" d="M670,433l-.34-.7a3.23,3.23,0,0,0-1-1.14c-.07-.07-.16-.13-.24-.2l-.14-.11-.09-.05a3.21,3.21,0,0,0-.3-.21l-60.3-34.82a8.9,8.9,0,0,0-8,0L479,465.87c-1.34.78-1.86,1.86-1.55,2.87l-.09.05V471a6.45,6.45,0,0,0,3.22,5.57l58.72,33.8a8.9,8.9,0,0,0,8,0l120.45-70A5.68,5.68,0,0,0,670,433Z" transform="translate(-452.35 -315)"/><path class="cls-32" d="M669.53,432.92l-.34-.7a3.31,3.31,0,0,0-1-1.14l-.25-.19c-.05,0-.08-.08-.14-.11l-.09,0a3.06,3.06,0,0,0-.29-.21l-59.93-34.6a8.79,8.79,0,0,0-7.93,0L479.44,465.78c-1.34.78-1.85,1.85-1.55,2.86l-.09.05v2.18a6.39,6.39,0,0,0,3.2,5.54L539.37,510a8.79,8.79,0,0,0,7.93,0l120-69.73A5.64,5.64,0,0,0,669.53,432.92Z" transform="translate(-452.35 -315)"/><path class="cls-33" d="M669,432.86l-.33-.69a3.28,3.28,0,0,0-1-1.13,2.23,2.23,0,0,0-.24-.19l-.14-.11-.09-.06c-.1-.06-.18-.14-.29-.2l-59.56-34.39a8.77,8.77,0,0,0-7.89,0L479.86,465.7c-1.33.77-1.84,1.84-1.54,2.84l-.09,0v2.17a6.36,6.36,0,0,0,3.18,5.5l58,33.39a8.75,8.75,0,0,0,7.88,0l119.5-69.49A5.59,5.59,0,0,0,669,432.86Z" transform="translate(-452.35 -315)"/><path class="cls-34" d="M668.56,432.81l-.34-.69a3.2,3.2,0,0,0-.94-1.13l-.24-.19-.14-.11-.09-.05a3,3,0,0,0-.29-.2l-59.2-34.18a8.71,8.71,0,0,0-7.83,0L480.28,465.62c-1.32.76-1.82,1.82-1.52,2.82l-.09.05v2.15a6.3,6.3,0,0,0,3.16,5.47l57.64,33.18a8.73,8.73,0,0,0,7.84,0l119-69.23A5.56,5.56,0,0,0,668.56,432.81Z" transform="translate(-452.35 -315)"/><path class="cls-35" d="M668.08,432.75l-.34-.69a3.23,3.23,0,0,0-.94-1.11,2.23,2.23,0,0,0-.24-.19s-.08-.08-.14-.11l-.08,0a3,3,0,0,0-.29-.2l-58.83-34a8.66,8.66,0,0,0-7.78,0L480.7,465.54c-1.31.75-1.81,1.81-1.51,2.8l-.09.05v2.14a6.27,6.27,0,0,0,3.14,5.43l57.29,33a8.66,8.66,0,0,0,7.78,0l118.56-69A5.54,5.54,0,0,0,668.08,432.75Z" transform="translate(-452.35 -315)"/><path class="cls-36" d="M667.59,432.7l-.33-.69a3.18,3.18,0,0,0-.93-1.1l-.24-.19-.14-.11-.09-.05-.28-.21-58.46-33.74a8.56,8.56,0,0,0-7.73,0L481.13,465.45c-1.31.76-1.81,1.8-1.51,2.79l-.09.05v2.12a6.23,6.23,0,0,0,3.12,5.4l56.93,32.77a8.58,8.58,0,0,0,7.74,0L665.4,439.86A5.5,5.5,0,0,0,667.59,432.7Z" transform="translate(-452.35 -315)"/><path class="cls-37" d="M667.11,432.64l-.33-.68a3.18,3.18,0,0,0-.93-1.1l-.24-.19-.13-.1-.09-.05-.29-.21L607,396.78a8.54,8.54,0,0,0-7.69,0L481.55,465.37c-1.3.75-1.79,1.79-1.5,2.77l-.09.05v2.11a6.22,6.22,0,0,0,3.11,5.37l56.56,32.55a8.54,8.54,0,0,0,7.69,0l117.61-68.46A5.47,5.47,0,0,0,667.11,432.64Z" transform="translate(-452.35 -315)"/><path class="cls-38" d="M666.63,432.59l-.33-.68a3.15,3.15,0,0,0-.93-1.09,2.11,2.11,0,0,0-.23-.19l-.14-.11-.08,0-.29-.2L606.92,397a8.49,8.49,0,0,0-7.64,0L482,465.29c-1.29.74-1.78,1.78-1.48,2.74l-.09.06v2.09a6.15,6.15,0,0,0,3.08,5.34l56.21,32.35a8.49,8.49,0,0,0,7.64,0l117.13-68.21A5.43,5.43,0,0,0,666.63,432.59Z" transform="translate(-452.35 -315)"/><path class="cls-39" d="M666.14,432.53l-.32-.67a3.23,3.23,0,0,0-.92-1.09l-.24-.18a1.5,1.5,0,0,0-.13-.11l-.09-.05a3.39,3.39,0,0,0-.28-.2l-57.34-33.11a8.45,8.45,0,0,0-7.59,0L482.39,465.2c-1.28.74-1.76,1.77-1.47,2.73l-.09.06v2.08a6.12,6.12,0,0,0,3.06,5.3l55.85,32.14a8.39,8.39,0,0,0,7.59,0L664,439.56A5.39,5.39,0,0,0,666.14,432.53Z" transform="translate(-452.35 -315)"/><path class="cls-40" d="M665.66,432.47l-.32-.66a3.29,3.29,0,0,0-.92-1.08l-.23-.18a1.27,1.27,0,0,0-.13-.11l-.09-.05a2,2,0,0,0-.28-.2l-57-32.89a8.35,8.35,0,0,0-7.54,0L482.82,465.12c-1.28.73-1.76,1.76-1.47,2.71l-.09.06V470a6.07,6.07,0,0,0,3,5.26l55.49,31.94a8.41,8.41,0,0,0,7.54,0l116.19-67.7A5.37,5.37,0,0,0,665.66,432.47Z" transform="translate(-452.35 -315)"/><path class="cls-41" d="M665.17,432.42l-.32-.66a3.23,3.23,0,0,0-.9-1.08l-.23-.18-.14-.1-.08,0a2.83,2.83,0,0,0-.28-.2l-56.61-32.68a8.3,8.3,0,0,0-7.49,0L483.24,465c-1.27.73-1.75,1.74-1.46,2.69l-.09,0v2.06a6,6,0,0,0,3,5.23l55.13,31.73a8.3,8.3,0,0,0,7.49,0l115.71-67.44A5.32,5.32,0,0,0,665.17,432.42Z" transform="translate(-452.35 -315)"/><path class="cls-42" d="M664.69,432.36l-.32-.65a3.11,3.11,0,0,0-.9-1.07l-.23-.18a1.5,1.5,0,0,0-.13-.11l-.08,0a2.83,2.83,0,0,0-.28-.2l-56.24-32.47a8.26,8.26,0,0,0-7.44,0L483.66,465c-1.26.73-1.73,1.74-1.45,2.68l-.08.05v2.05a6,6,0,0,0,3,5.19l54.77,31.53a8.26,8.26,0,0,0,7.44,0l115.24-67.19A5.3,5.3,0,0,0,664.69,432.36Z" transform="translate(-452.35 -315)"/><path class="cls-43" d="M664.21,432.31l-.32-.66a3.22,3.22,0,0,0-.89-1,2,2,0,0,0-.23-.18s-.08-.08-.13-.11l-.09-.05c-.09-.06-.17-.13-.27-.19l-55.87-32.26a8.22,8.22,0,0,0-7.39,0L484.08,464.87c-1.24.72-1.72,1.72-1.43,2.66l-.09.05v2a6,6,0,0,0,3,5.16L540,506.09a8.18,8.18,0,0,0,7.4,0l114.76-66.93A5.26,5.26,0,0,0,664.21,432.31Z" transform="translate(-452.35 -315)"/><path class="cls-44" d="M663.72,432.25l-.31-.65a3.22,3.22,0,0,0-.89-1.05l-.23-.18-.13-.1-.08,0c-.09-.06-.17-.13-.27-.19l-55.5-32a8.13,8.13,0,0,0-7.35,0l-114.45,66.8c-1.24.71-1.72,1.71-1.43,2.64l-.09.05v2a5.93,5.93,0,0,0,3,5.13L540,505.74a8.18,8.18,0,0,0,7.34,0l114.29-66.68A5.22,5.22,0,0,0,663.72,432.25Z" transform="translate(-452.35 -315)"/><path class="cls-45" d="M663.24,432.2l-.31-.65a3,3,0,0,0-.89-1,2.13,2.13,0,0,0-.22-.18c-.05,0-.08-.08-.13-.1l-.08-.05c-.09-.06-.17-.13-.27-.19l-55.13-31.83a8.09,8.09,0,0,0-7.3,0l-114,66.54c-1.23.72-1.7,1.7-1.42,2.63l-.09.05v2a5.89,5.89,0,0,0,2.95,5.1l53.69,30.9a8.09,8.09,0,0,0,7.3,0L661.17,439A5.18,5.18,0,0,0,663.24,432.2Z" transform="translate(-452.35 -315)"/><path class="cls-46" d="M662.76,432.14l-.31-.64a3.26,3.26,0,0,0-.88-1l-.22-.17c-.05,0-.08-.08-.13-.11l-.08,0c-.1-.07-.17-.13-.27-.19L606.1,398.33a8,8,0,0,0-7.24,0L485.35,464.62c-1.22.71-1.69,1.69-1.41,2.61l-.08,0v2a5.83,5.83,0,0,0,2.92,5.06L540.11,505a8,8,0,0,0,7.25,0L660.7,438.85A5.15,5.15,0,0,0,662.76,432.14Z" transform="translate(-452.35 -315)"/><path class="cls-2" d="M662.27,432.09l-.31-.64a3,3,0,0,0-.87-1,2.13,2.13,0,0,0-.22-.18l-.13-.1-.08,0a2.48,2.48,0,0,0-.26-.19L606,398.5a8,8,0,0,0-7.19,0l-113,66c-1.21.7-1.67,1.68-1.4,2.59l-.08.05v2a5.8,5.8,0,0,0,2.9,5l53,30.49a8,8,0,0,0,7.19,0l112.87-65.92A5.11,5.11,0,0,0,662.27,432.09Z" transform="translate(-452.35 -315)"/></g><path class="cls-47" d="M471.66,467.08v-2.46l131.23-77.08c2.47-1.43,5.37-2.29,7.83-.87l68.9,39.55a3.8,3.8,0,0,1,1.52,1.63l.38.79a6.37,6.37,0,0,1-2.54,8.3L550.16,511.28a9.93,9.93,0,0,1-8.95,0l-65.93-37.94A7.23,7.23,0,0,1,471.66,467.08Z" transform="translate(-452.35 -315)"/><path class="cls-48" d="M473.51,466.51c-2.47-1.42-2.47-3.75,0-5.17l129-74.5a10,10,0,0,1,9,0l67.7,39.09c2.46,1.42,2.46,3.75,0,5.17l-129,74.49a9.87,9.87,0,0,1-8.95,0Z" transform="translate(-452.35 -315)"/><path class="cls-49" d="M476.36,466.31c-2.38-1.37-2.38-3.61,0-5L602.54,388.5a9.57,9.57,0,0,1,8.63,0l11.83,7a1.15,1.15,0,0,1,.08,1.93l-1.31.92a1.31,1.31,0,0,0,0,2.27L654,419.11a2.84,2.84,0,0,0,2.77,0l2.8-1.51a2.13,2.13,0,0,1,2.05,0l14.74,8.45c2.37,1.37,2.37,3.62,0,5L550.15,503.94a9.55,9.55,0,0,1-8.62,0Z" transform="translate(-452.35 -315)"/><path class="cls-49" d="M646.71,411.89a.41.41,0,0,1-.2-.06l-14.2-8.18a.4.4,0,0,1,.4-.69l14.2,8.18a.41.41,0,0,1,.15.55A.39.39,0,0,1,646.71,411.89Z" transform="translate(-452.35 -315)"/><rect class="cls-50" x="83.31" y="36.59" width="5.72" height="110.01"/><rect class="cls-51" x="92.2" y="33.97" width="11.29" height="91.48"/><rect class="cls-52" x="137.88" y="33.97" width="9.33" height="101.68"/><rect class="cls-53" x="151.37" y="38.18" width="5.72" height="107.41"/><path class="cls-54" d="M582.26,444.36H566l0,7.91a4,4,0,0,0,2.36,3.3,12.81,12.81,0,0,0,11.48,0c1.58-.91,2.37-2.11,2.37-3.3h0Z" transform="translate(-452.35 -315)"/><path class="cls-54" d="M582.5,451.27l4.94-19.88a208.05,208.05,0,0,0,6-40.24c0-.9.08-1.79.11-2.66a131,131,0,0,0-13.93-63.34L574.55,315h-.79l-5.09,10.15a131,131,0,0,0-13.93,63.34c0,.87.07,1.76.11,2.66a208.05,208.05,0,0,0,6,40.24l4.94,19.88Z" transform="translate(-452.35 -315)"/><polygon class="cls-55" points="104.7 88.8 87.93 103.3 79.75 154.75 112.32 127.74 105.83 89.94 104.7 88.8"/><polygon class="cls-56" points="105.83 89.94 89.06 104.44 79.75 154.75 113.46 128.88 105.83 89.94"/><polygon class="cls-55" points="138.54 88.8 155.31 103.3 163.49 154.75 130.92 127.74 137.41 89.94 138.54 88.8"/><polygon class="cls-57" points="137.41 89.94 154.18 104.44 163.49 154.75 129.78 128.88 137.41 89.94"/><path class="cls-58" d="M586.1,340.33a133.75,133.75,0,0,0-6.46-15.18L574.55,315h-.79l-5.09,10.15a135.16,135.16,0,0,0-6.47,15.2A44.78,44.78,0,0,0,586.1,340.33Z" transform="translate(-452.35 -315)"/><path class="cls-4" d="M556,397.37c-.26-.15-.49-.31-.73-.46.07.92.16,1.84.24,2.76a43,43,0,0,0,37.39,0c.08-.92.17-1.85.24-2.77-.25.16-.5.33-.77.49C582.26,403.14,566,403.14,556,397.37Z" transform="translate(-452.35 -315)"/><path class="cls-4" d="M584.46,371.6a10.45,10.45,0,0,1-20.61,0,10.37,10.37,0,1,1,20.61,0Z" transform="translate(-452.35 -315)"/><path class="cls-49" d="M582.75,371.37a8.72,8.72,0,0,1-17.19,0,8.65,8.65,0,1,1,17.19,0Z" transform="translate(-452.35 -315)"/><path class="cls-59" d="M574.2,361.79l-8.71,8.71a8.5,8.5,0,0,0,.07.87A8.22,8.22,0,0,0,567.9,376L580,363.94A8.76,8.76,0,0,0,574.2,361.79Z" transform="translate(-452.35 -315)"/><path class="cls-59" d="M582.05,366.71A8.24,8.24,0,0,0,581,365l-12,12a8.68,8.68,0,0,0,1.83,1Z" transform="translate(-452.35 -315)"/><path class="cls-4" d="M584,445.12a7.72,7.72,0,0,1-2.28,1.89c-4.5,2.59-11.8,2.59-16.28,0-.31-.18-.59-.37-.86-.56l.4,1.6a19.38,19.38,0,0,0,17.31-.06,8.86,8.86,0,0,0,1.19-.81Z" transform="translate(-452.35 -315)"/><path class="cls-60" d="M609.11,364a74.78,74.78,0,0,0-18.82-5.18l.19.93a73.79,73.79,0,0,1,18.06,5c9,4,14,9.26,14,14.87s-5,10.9-14,14.87c-18.94,8.34-49.68,8.34-68.51,0-9-4-13.92-9.25-13.92-14.87s4.94-10.89,13.92-14.87a72.41,72.41,0,0,1,17.55-4.94l.36-1A74.15,74.15,0,0,0,539.45,364c-9.35,4.14-14.5,9.69-14.5,15.63s5.15,11.5,14.5,15.64c9.58,4.24,22.18,6.36,34.79,6.36s25.24-2.12,34.87-6.36c9.41-4.14,14.58-9.69,14.58-15.64S618.52,368.16,609.11,364Z" transform="translate(-452.35 -315)"/><path class="cls-61" d="M528.52,382.43a2.55,2.55,0,1,1-2.55-2.55A2.55,2.55,0,0,1,528.52,382.43Z" transform="translate(-452.35 -315)"/><path class="cls-62" d="M546.47,396.75a1.92,1.92,0,1,1-1.91-1.91A1.91,1.91,0,0,1,546.47,396.75Z" transform="translate(-452.35 -315)"/><path class="cls-63" d="M587.08,400.59a1.24,1.24,0,1,1-1.24-1.24A1.23,1.23,0,0,1,587.08,400.59Z" transform="translate(-452.35 -315)"/><path class="cls-64" d="M602.36,349.82a61.27,61.27,0,0,0-15.25-4.2l.16.76a59.71,59.71,0,0,1,14.63,4.06c7.31,3.22,11.34,7.5,11.34,12.05s-4,8.82-11.34,12c-15.35,6.76-40.25,6.76-55.51,0-7.27-3.22-11.28-7.5-11.28-12s4-8.83,11.28-12.05a58.45,58.45,0,0,1,14.22-4l.3-.78a60.25,60.25,0,0,0-15,4.17c-7.57,3.35-11.74,7.85-11.74,12.67s4.17,9.31,11.74,12.66c7.76,3.44,18,5.16,28.19,5.16s20.45-1.72,28.25-5.16c7.62-3.35,11.82-7.85,11.82-12.66S610,353.17,602.36,349.82Z" transform="translate(-452.35 -315)"/><path class="cls-65" d="M551.51,376.08a2.07,2.07,0,1,1-2.06-2.06A2.07,2.07,0,0,1,551.51,376.08Z" transform="translate(-452.35 -315)"/><path class="cls-66" d="M588.64,379.1a1.56,1.56,0,1,1-1.56-1.55A1.56,1.56,0,0,1,588.64,379.1Z" transform="translate(-452.35 -315)"/><path class="cls-67" d="M610.45,370.32a1,1,0,1,1-1-1A1,1,0,0,1,610.45,370.32Z" transform="translate(-452.35 -315)"/><path class="cls-68" d="M613.48,421.8a.49.49,0,0,1-1,0,.49.49,0,0,1,1,0Z" transform="translate(-452.35 -315)"/><path class="cls-68" d="M594.9,353.18a.49.49,0,1,1-.49-.49A.49.49,0,0,1,594.9,353.18Z" transform="translate(-452.35 -315)"/><circle class="cls-68" cx="163.97" cy="65.36" r="0.49"/><path class="cls-68" d="M544.56,470.24a.49.49,0,0,1-1,0,.49.49,0,1,1,1,0Z" transform="translate(-452.35 -315)"/><path class="cls-68" d="M600.9,403.8a.49.49,0,1,1-.49-.49A.49.49,0,0,1,600.9,403.8Z" transform="translate(-452.35 -315)"/><path class="cls-68" d="M611.42,392.37a.49.49,0,1,1-.49-.49A.49.49,0,0,1,611.42,392.37Z" transform="translate(-452.35 -315)"/><path class="cls-68" d="M595.38,463.82a.49.49,0,0,1-1,0,.49.49,0,1,1,1,0Z" transform="translate(-452.35 -315)"/><path class="cls-68" d="M589.88,436.29a.49.49,0,0,1-1,0,.49.49,0,0,1,1,0Z" transform="translate(-452.35 -315)"/><path class="cls-68" d="M600.41,378.64a.49.49,0,0,1-1,0,.49.49,0,1,1,1,0Z" transform="translate(-452.35 -315)"/><path class="cls-68" d="M554,415.7a.49.49,0,1,1-.49-.49A.49.49,0,0,1,554,415.7Z" transform="translate(-452.35 -315)"/><path class="cls-68" d="M601.39,356a.49.49,0,1,1-.49-.49A.49.49,0,0,1,601.39,356Z" transform="translate(-452.35 -315)"/><path class="cls-68" d="M537.05,378.15a.49.49,0,1,1-.49-.49A.49.49,0,0,1,537.05,378.15Z" transform="translate(-452.35 -315)"/><path class="cls-68" d="M541.91,451.27a.49.49,0,1,1-.49-.49A.49.49,0,0,1,541.91,451.27Z" transform="translate(-452.35 -315)"/><path class="cls-68" d="M598.48,453.49a.48.48,0,0,1-.48.49.49.49,0,0,1,0-1A.48.48,0,0,1,598.48,453.49Z" transform="translate(-452.35 -315)"/><path class="cls-68" d="M550.69,368.91a.48.48,0,0,1-.49.48.47.47,0,0,1-.48-.48.48.48,0,0,1,.48-.49A.49.49,0,0,1,550.69,368.91Z" transform="translate(-452.35 -315)"/><path class="cls-68" d="M532,414.72a.49.49,0,0,1-1,0,.49.49,0,0,1,1,0Z" transform="translate(-452.35 -315)"/><path class="cls-68" d="M555.71,351.59a.49.49,0,1,1-.49-.49A.49.49,0,0,1,555.71,351.59Z" transform="translate(-452.35 -315)"/><path class="cls-68" d="M549.45,396.88a.49.49,0,1,1-.49-.49A.49.49,0,0,1,549.45,396.88Z" transform="translate(-452.35 -315)"/><path class="cls-68" d="M598.78,438.61a.26.26,0,1,1-.52,0,.26.26,0,0,1,.52,0Z" transform="translate(-452.35 -315)"/><path class="cls-68" d="M611.68,462.13a.26.26,0,0,1-.26.26.26.26,0,0,1-.26-.26.25.25,0,0,1,.26-.26A.26.26,0,0,1,611.68,462.13Z" transform="translate(-452.35 -315)"/><path class="cls-68" d="M609.7,385.36a.25.25,0,0,1-.26.26.26.26,0,0,1-.26-.26.26.26,0,0,1,.26-.26A.26.26,0,0,1,609.7,385.36Z" transform="translate(-452.35 -315)"/><path class="cls-68" d="M621.55,406.88a.26.26,0,0,1-.26.27.27.27,0,0,1,0-.53A.26.26,0,0,1,621.55,406.88Z" transform="translate(-452.35 -315)"/><path class="cls-68" d="M614,409.08a.26.26,0,0,1-.26.26.26.26,0,0,1-.26-.26.26.26,0,0,1,.26-.26A.25.25,0,0,1,614,409.08Z" transform="translate(-452.35 -315)"/><path class="cls-68" d="M534.44,356.49a.27.27,0,0,1-.53,0,.27.27,0,1,1,.53,0Z" transform="translate(-452.35 -315)"/><path class="cls-68" d="M616.1,358.59a.26.26,0,0,1-.26.26.26.26,0,0,1-.26-.26.25.25,0,0,1,.26-.26A.26.26,0,0,1,616.1,358.59Z" transform="translate(-452.35 -315)"/><path class="cls-68" d="M546.54,356a.27.27,0,0,1-.53,0,.27.27,0,0,1,.53,0Z" transform="translate(-452.35 -315)"/><path class="cls-68" d="M586.36,461.87a.26.26,0,0,1-.26.26.27.27,0,0,1,0-.53A.26.26,0,0,1,586.36,461.87Z" transform="translate(-452.35 -315)"/><path class="cls-68" d="M558.86,442.76a.27.27,0,0,1-.53,0,.27.27,0,0,1,.53,0Z" transform="translate(-452.35 -315)"/><path class="cls-68" d="M526.23,401a.26.26,0,0,1-.26.26.26.26,0,0,1,0-.52A.26.26,0,0,1,526.23,401Z" transform="translate(-452.35 -315)"/><path class="cls-68" d="M589.92,425.13a.27.27,0,0,1-.53,0,.27.27,0,0,1,.53,0Z" transform="translate(-452.35 -315)"/><path class="cls-68" d="M597.77,369.31a.26.26,0,0,1-.26.26.26.26,0,0,1-.26-.26.25.25,0,0,1,.26-.26A.26.26,0,0,1,597.77,369.31Z" transform="translate(-452.35 -315)"/><circle class="cls-68" cx="94.18" cy="115.53" r="0.26"/><path class="cls-68" d="M544.33,360.1a.27.27,0,0,1-.26.27.27.27,0,0,1,0-.53A.26.26,0,0,1,544.33,360.1Z" transform="translate(-452.35 -315)"/><path class="cls-68" d="M598.52,385.36a.26.26,0,0,1-.26.26.25.25,0,0,1-.26-.26.26.26,0,0,1,.26-.26A.26.26,0,0,1,598.52,385.36Z" transform="translate(-452.35 -315)"/><path class="cls-68" d="M551,388.08a.25.25,0,0,1-.26.26.26.26,0,0,1-.26-.26.26.26,0,0,1,.26-.26A.26.26,0,0,1,551,388.08Z" transform="translate(-452.35 -315)"/><path class="cls-68" d="M599.7,425.65a.26.26,0,0,1-.26.26.25.25,0,0,1-.26-.26.26.26,0,0,1,.26-.26A.26.26,0,0,1,599.7,425.65Z" transform="translate(-452.35 -315)"/><path class="cls-68" d="M539.8,440.61a.26.26,0,0,1-.26.27.27.27,0,0,1,0-.53A.26.26,0,0,1,539.8,440.61Z" transform="translate(-452.35 -315)"/><path class="cls-68" d="M533.66,429a.26.26,0,0,1-.26.26.27.27,0,0,1,0-.53A.26.26,0,0,1,533.66,429Z" transform="translate(-452.35 -315)"/><path class="cls-68" d="M549.22,379.12a.27.27,0,0,1-.26.27.27.27,0,0,1,0-.53A.26.26,0,0,1,549.22,379.12Z" transform="translate(-452.35 -315)"/><path class="cls-68" d="M535.82,395.37a.27.27,0,1,1-.27-.26A.27.27,0,0,1,535.82,395.37Z" transform="translate(-452.35 -315)"/><circle class="cls-68" cx="149.69" cy="80.63" r="0.26"/><circle class="cls-68" cx="88.58" cy="92.34" r="0.26"/><path class="cls-68" d="M525.21,366.34a.26.26,0,1,1-.52,0,.26.26,0,1,1,.52,0Z" transform="translate(-452.35 -315)"/><circle class="cls-68" cx="103.13" cy="146.6" r="0.26"/><path class="cls-68" d="M613.74,437.34a.26.26,0,1,1-.52,0,.26.26,0,1,1,.52,0Z" transform="translate(-452.35 -315)"/><path class="cls-68" d="M563.74,459.56a.26.26,0,0,1-.26.26.26.26,0,0,1-.26-.26.26.26,0,0,1,.26-.26A.25.25,0,0,1,563.74,459.56Z" transform="translate(-452.35 -315)"/><polygon class="cls-69" points="27.25 129.84 48.29 117.61 48.29 116.31 38.02 111.44 16.69 122.45 16.69 123.75 27.25 129.84"/><polygon class="cls-54" points="27.25 128.55 48.29 116.31 38.02 110.14 16.69 122.45 27.25 128.55"/><path class="cls-70" d="M474.93,439.37l-.07-25.83a5.59,5.59,0,0,1,2.49-4.34l12.1-7.08c1.37-.8,2.49-.16,2.49,1.43v26.53L476.3,440Z" transform="translate(-452.35 -315)"/><path class="cls-71" d="M476.3,440V413.54a5.59,5.59,0,0,1,2.49-4.34l12.11-7.08c1.37-.8,2.49-.16,2.49,1.43v26.53Z" transform="translate(-452.35 -315)"/><path class="cls-72" d="M478.79,409.2l12.11-7.08c1.37-.8,2.49-.16,2.49,1.43v20.9l-17.09,9.89v-20.8A5.59,5.59,0,0,1,478.79,409.2Z" transform="translate(-452.35 -315)"/><path class="cls-73" d="M512.87,361.53h0a2.59,2.59,0,0,1,.84,1.92v43.32a5.52,5.52,0,0,1-2.5,4.33l-54.92,31.81a2.75,2.75,0,0,1-2.43.2l-.39-.2a2,2,0,0,1-1.12-1.79V397.05a5.55,5.55,0,0,1,2.5-4.33l54.43-31.58A3.05,3.05,0,0,1,512.87,361.53Z" transform="translate(-452.35 -315)"/><path class="cls-2" d="M511.21,361.88c1.38-.79,2.5-.14,2.5,1.44V406.9a5.52,5.52,0,0,1-2.5,4.33L456.3,442.94c-1.38.79-2.5.14-2.5-1.44V397.92a5.52,5.52,0,0,1,2.5-4.33Z" transform="translate(-452.35 -315)"/><polygon class="cls-2" points="59.15 50.6 59.15 83.6 4.04 115.13 4.04 81.85 59.15 50.6"/><path class="cls-54" d="M511.21,411.23,456.3,442.94c-1.38.79-2.5.14-2.5-1.44v-7l59.91-34.7v7.11A5.52,5.52,0,0,1,511.21,411.23Z" transform="translate(-452.35 -315)"/><polygon class="cls-74" points="29.24 69.54 19.72 75.03 19.72 76.6 29.24 71.11 29.24 69.54"/><polygon class="cls-4" points="55.44 57.18 25.31 74.72 25.31 76.29 55.44 58.75 55.44 57.18"/><polygon class="cls-4" points="54.94 70.07 24.82 87.61 24.82 89.18 54.94 71.64 54.94 70.07"/><polygon class="cls-4" points="55.49 82.27 25.36 99.81 25.36 101.38 55.49 83.83 55.49 82.27"/><polygon class="cls-4" points="22.93 76.09 13.41 81.59 13.41 83.16 22.93 77.66 22.93 76.09"/><polygon class="cls-4" points="20.91 80.32 16.41 82.94 16.41 84.51 20.91 81.89 20.91 80.32"/><polygon class="cls-75" points="23.51 91.44 19.01 94.06 19.01 95.63 23.51 93.02 23.51 91.44"/><polygon class="cls-76" points="26.73 76.93 22.23 79.55 22.23 81.12 26.73 78.5 26.73 76.93"/><polygon class="cls-4" points="50.38 63.25 29.37 75.36 29.37 76.93 50.38 64.82 50.38 63.25"/><polygon class="cls-4" points="56.61 75.5 35.6 87.61 35.6 89.18 56.61 77.07 56.61 75.5"/><polygon class="cls-4" points="50.55 69.62 29.53 81.73 29.53 83.3 50.55 71.19 50.55 69.62"/><polygon class="cls-4" points="19.01 84.64 13.41 87.87 13.41 89.44 19.01 86.21 19.01 84.64"/><polygon class="cls-77" points="18.17 88.29 16.21 89.44 16.21 91.01 18.17 89.86 18.17 88.29"/><polygon class="cls-78" points="30.35 93.74 28.39 94.89 28.39 96.46 30.35 95.31 30.35 93.74"/><polygon class="cls-79" points="33.31 91.99 31.35 93.14 31.35 94.71 33.31 93.56 33.31 91.99"/><polygon class="cls-80" points="36.11 84.33 34.16 85.48 34.16 87.05 36.11 85.9 36.11 84.33"/><polygon class="cls-4" points="28.33 82.42 18.81 87.91 18.81 89.48 28.33 83.98 28.33 82.42"/><polygon class="cls-81" points="40.04 72.56 30.52 78.06 30.52 79.63 40.04 74.13 40.04 72.56"/><polygon class="cls-4" points="34.88 88.04 25.36 93.53 25.36 95.1 34.88 89.61 34.88 88.04"/><polygon class="cls-4" points="29.65 78.52 20.13 84.01 20.13 85.58 29.65 80.09 29.65 78.52"/><polygon class="cls-4" points="23.57 88.29 14.05 93.78 14.05 95.35 23.57 89.86 23.57 88.29"/><polygon class="cls-4" points="33.63 85.69 24.12 91.19 24.12 92.76 33.63 87.26 33.63 85.69"/><polygon class="cls-4" points="24.11 94.25 14.59 99.75 14.59 101.32 24.11 95.83 24.11 94.25"/><polygon class="cls-4" points="27.62 95.35 18.1 100.85 18.1 102.42 27.62 96.92 27.62 95.35"/><polygon class="cls-4" points="24.11 100.54 14.59 106.03 14.59 107.6 24.11 102.11 24.11 100.54"/><polygon class="cls-4" points="9.99 80.43 8.37 81.37 8.37 82.94 9.99 82 9.99 80.43"/><polygon class="cls-4" points="9.99 83.58 8.37 84.52 8.37 86.08 9.99 85.14 9.99 83.58"/><polygon class="cls-4" points="9.99 86.72 8.37 87.66 8.37 89.23 9.99 88.29 9.99 86.72"/><polygon class="cls-4" points="9.99 89.86 8.37 90.8 8.37 92.37 9.99 91.43 9.99 89.86"/><polygon class="cls-4" points="9.99 93 8.37 93.94 8.37 95.51 9.99 94.57 9.99 93"/><polygon class="cls-4" points="9.99 96.14 8.37 97.08 8.37 98.65 9.99 97.71 9.99 96.14"/><polygon class="cls-4" points="9.99 99.28 8.37 100.22 8.37 101.79 9.99 100.85 9.99 99.28"/><polygon class="cls-4" points="9.99 102.42 8.37 103.36 8.37 104.94 9.99 104 9.99 102.42"/><polygon class="cls-4" points="9.99 105.57 8.37 106.51 8.37 108.08 9.99 107.14 9.99 105.57"/><polygon class="cls-4" points="9.99 108.71 8.37 109.65 8.37 111.22 9.99 110.28 9.99 108.71"/><polygon class="cls-4" points="40.04 63.25 30.52 68.75 30.52 70.32 40.04 64.82 40.04 63.25"/><g class="cls-82"><path class="cls-83" d="M644.51,481.31c0-1.36-1-1.92-2.15-1.24l-47.14,27.22a4.76,4.76,0,0,0-2.15,3.72v16.38c0,1.36,1,1.92,2.15,1.24l47.14-27.22a4.75,4.75,0,0,0,2.15-3.72Z" transform="translate(-452.35 -315)"/><path class="cls-84" d="M644.51,481.32c0-1.37-1-1.92-2.15-1.24L595.22,507.3a4.76,4.76,0,0,0-2.15,3.72v16c0,1.36,1,1.92,2.15,1.24L642.36,501a4.75,4.75,0,0,0,2.15-3.72Z" transform="translate(-452.35 -315)"/><path class="cls-85" d="M644.51,481.33c0-1.37-1-1.92-2.15-1.24l-47.14,27.22a4.76,4.76,0,0,0-2.15,3.72v15.54c0,1.36,1,1.92,2.15,1.24l47.14-27.22a4.75,4.75,0,0,0,2.15-3.72Z" transform="translate(-452.35 -315)"/><path class="cls-86" d="M644.51,481.34c0-1.37-1-1.93-2.15-1.24l-47.14,27.22a4.76,4.76,0,0,0-2.15,3.71v15.13c0,1.36,1,1.92,2.15,1.24l47.14-27.22a4.75,4.75,0,0,0,2.15-3.72Z" transform="translate(-452.35 -315)"/><path class="cls-87" d="M644.51,481.34c0-1.36-1-1.92-2.15-1.24l-47.14,27.22a4.79,4.79,0,0,0-2.15,3.72v14.71c0,1.36,1,1.92,2.15,1.24l47.14-27.22a4.75,4.75,0,0,0,2.15-3.72Z" transform="translate(-452.35 -315)"/><path class="cls-88" d="M644.51,481.35c0-1.36-1-1.92-2.15-1.24l-47.14,27.22a4.77,4.77,0,0,0-2.15,3.72v14.29c0,1.36,1,1.92,2.15,1.24l47.14-27.22a4.75,4.75,0,0,0,2.15-3.72Z" transform="translate(-452.35 -315)"/><path class="cls-89" d="M644.51,481.36c0-1.36-1-1.92-2.15-1.24l-47.14,27.22a4.77,4.77,0,0,0-2.15,3.72v13.87c0,1.36,1,1.92,2.15,1.24L642.36,499a4.75,4.75,0,0,0,2.15-3.72Z" transform="translate(-452.35 -315)"/><path class="cls-90" d="M644.51,481.37c0-1.36-1-1.92-2.15-1.24l-47.14,27.22a4.77,4.77,0,0,0-2.15,3.72v13.45c0,1.36,1,1.92,2.15,1.24l47.14-27.22a4.75,4.75,0,0,0,2.15-3.72Z" transform="translate(-452.35 -315)"/><path class="cls-91" d="M644.51,481.38c0-1.36-1-1.92-2.15-1.24l-47.14,27.22a4.76,4.76,0,0,0-2.15,3.72v13c0,1.36,1,1.92,2.15,1.24l47.14-27.22a4.75,4.75,0,0,0,2.15-3.72Z" transform="translate(-452.35 -315)"/><path class="cls-92" d="M644.51,481.39c0-1.37-1-1.92-2.15-1.24l-47.14,27.22a4.76,4.76,0,0,0-2.15,3.72V523.7c0,1.36,1,1.92,2.15,1.24l47.14-27.22a4.75,4.75,0,0,0,2.15-3.72Z" transform="translate(-452.35 -315)"/><path class="cls-93" d="M644.51,481.4c0-1.37-1-1.92-2.15-1.24l-47.14,27.22a4.76,4.76,0,0,0-2.15,3.72v12.19c0,1.36,1,1.92,2.15,1.24l47.14-27.22a4.75,4.75,0,0,0,2.15-3.72Z" transform="translate(-452.35 -315)"/><path class="cls-94" d="M644.51,481.41c0-1.37-1-1.93-2.15-1.24l-47.14,27.22a4.76,4.76,0,0,0-2.15,3.71v11.78c0,1.36,1,1.92,2.15,1.24l47.14-27.22a4.75,4.75,0,0,0,2.15-3.72Z" transform="translate(-452.35 -315)"/><path class="cls-95" d="M644.51,481.41c0-1.36-1-1.92-2.15-1.24l-47.14,27.22a4.79,4.79,0,0,0-2.15,3.72v11.36c0,1.36,1,1.92,2.15,1.24l47.14-27.22a4.75,4.75,0,0,0,2.15-3.72Z" transform="translate(-452.35 -315)"/><path class="cls-96" d="M644.51,481.42c0-1.36-1-1.92-2.15-1.24L595.22,507.4a4.77,4.77,0,0,0-2.15,3.72v10.94c0,1.36,1,1.92,2.15,1.24l47.14-27.22a4.75,4.75,0,0,0,2.15-3.72Z" transform="translate(-452.35 -315)"/><path class="cls-97" d="M644.51,481.43c0-1.36-1-1.92-2.15-1.24l-47.14,27.22a4.77,4.77,0,0,0-2.15,3.72v10.52c0,1.36,1,1.92,2.15,1.24l47.14-27.22a4.75,4.75,0,0,0,2.15-3.72Z" transform="translate(-452.35 -315)"/><path class="cls-98" d="M644.51,481.44c0-1.36-1-1.92-2.15-1.24l-47.14,27.22a4.77,4.77,0,0,0-2.15,3.72v10.1c0,1.36,1,1.92,2.15,1.24l47.14-27.22a4.73,4.73,0,0,0,2.15-3.72Z" transform="translate(-452.35 -315)"/><path class="cls-99" d="M644.51,481.45c0-1.36-1-1.92-2.15-1.24l-47.14,27.22a4.76,4.76,0,0,0-2.15,3.72v9.68c0,1.36,1,1.92,2.15,1.24l47.14-27.22a4.73,4.73,0,0,0,2.15-3.72Z" transform="translate(-452.35 -315)"/><path class="cls-100" d="M644.51,481.46c0-1.37-1-1.92-2.15-1.24l-47.14,27.22a4.76,4.76,0,0,0-2.15,3.72v9.26c0,1.36,1,1.92,2.15,1.24l47.14-27.22a4.73,4.73,0,0,0,2.15-3.72Z" transform="translate(-452.35 -315)"/><path class="cls-101" d="M644.51,481.47c0-1.37-1-1.92-2.15-1.24l-47.14,27.22a4.76,4.76,0,0,0-2.15,3.72V520c0,1.36,1,1.92,2.15,1.24L642.36,494a4.73,4.73,0,0,0,2.15-3.72Z" transform="translate(-452.35 -315)"/><path class="cls-102" d="M644.51,481.48c0-1.37-1-1.93-2.15-1.24l-47.14,27.22a4.76,4.76,0,0,0-2.15,3.71v8.43c0,1.36,1,1.92,2.15,1.24l47.14-27.22a4.73,4.73,0,0,0,2.15-3.72Z" transform="translate(-452.35 -315)"/><path class="cls-103" d="M644.51,481.48c0-1.36-1-1.92-2.15-1.24l-47.14,27.22a4.79,4.79,0,0,0-2.15,3.72v8c0,1.36,1,1.92,2.15,1.24l47.14-27.22a4.73,4.73,0,0,0,2.15-3.72Z" transform="translate(-452.35 -315)"/><path class="cls-104" d="M644.51,481.49c0-1.36-1-1.92-2.15-1.24l-47.14,27.22a4.77,4.77,0,0,0-2.15,3.72v7.59c0,1.37,1,1.92,2.15,1.24l47.14-27.22a4.73,4.73,0,0,0,2.15-3.72Z" transform="translate(-452.35 -315)"/><path class="cls-105" d="M644.51,481.5c0-1.36-1-1.92-2.15-1.24l-47.14,27.22a4.77,4.77,0,0,0-2.15,3.72v7.17c0,1.37,1,1.92,2.15,1.24l47.14-27.22a4.73,4.73,0,0,0,2.15-3.72Z" transform="translate(-452.35 -315)"/><path class="cls-106" d="M644.51,481.51c0-1.36-1-1.92-2.15-1.24l-47.14,27.22a4.77,4.77,0,0,0-2.15,3.72V518c0,1.37,1,1.92,2.15,1.24L642.36,492a4.73,4.73,0,0,0,2.15-3.72Z" transform="translate(-452.35 -315)"/><path class="cls-107" d="M644.51,481.52c0-1.36-1-1.92-2.15-1.24L595.22,507.5a4.76,4.76,0,0,0-2.15,3.72v6.33c0,1.37,1,1.92,2.15,1.24l47.14-27.22a4.73,4.73,0,0,0,2.15-3.72Z" transform="translate(-452.35 -315)"/><path class="cls-108" d="M644.51,481.53c0-1.37-1-1.92-2.15-1.24l-47.14,27.22a4.76,4.76,0,0,0-2.15,3.72v5.91c0,1.37,1,1.92,2.15,1.24l47.14-27.22a4.73,4.73,0,0,0,2.15-3.72Z" transform="translate(-452.35 -315)"/><path class="cls-109" d="M644.51,481.54c0-1.37-1-1.93-2.15-1.24l-47.14,27.22a4.76,4.76,0,0,0-2.15,3.71v5.5c0,1.37,1,1.92,2.15,1.24l47.14-27.22a4.73,4.73,0,0,0,2.15-3.72Z" transform="translate(-452.35 -315)"/><path class="cls-110" d="M644.51,481.54c0-1.36-1-1.92-2.15-1.23l-47.14,27.21a4.79,4.79,0,0,0-2.15,3.72v5.08c0,1.37,1,1.92,2.15,1.24l47.14-27.22a4.73,4.73,0,0,0,2.15-3.72Z" transform="translate(-452.35 -315)"/><path class="cls-111" d="M644.51,481.55c0-1.36-1-1.92-2.15-1.24l-47.14,27.22a4.79,4.79,0,0,0-2.15,3.72v4.66c0,1.37,1,1.92,2.15,1.24l47.14-27.22a4.73,4.73,0,0,0,2.15-3.72Z" transform="translate(-452.35 -315)"/><path class="cls-112" d="M644.51,481.56c0-1.36-1-1.92-2.15-1.24l-47.14,27.22a4.77,4.77,0,0,0-2.15,3.72v4.24c0,1.37,1,1.92,2.15,1.24l47.14-27.22a4.73,4.73,0,0,0,2.15-3.72Z" transform="translate(-452.35 -315)"/><path class="cls-113" d="M644.51,481.57c0-1.36-1-1.92-2.15-1.24l-47.14,27.22a4.77,4.77,0,0,0-2.15,3.72v3.82c0,1.37,1,1.93,2.15,1.24l47.14-27.22a4.73,4.73,0,0,0,2.15-3.71Z" transform="translate(-452.35 -315)"/><path class="cls-114" d="M644.51,481.58c0-1.36-1-1.92-2.15-1.24l-47.14,27.22a4.76,4.76,0,0,0-2.15,3.72v3.4c0,1.37,1,1.93,2.15,1.24l47.14-27.22a4.73,4.73,0,0,0,2.15-3.71Z" transform="translate(-452.35 -315)"/><path class="cls-115" d="M644.51,481.59c0-1.37-1-1.92-2.15-1.24l-47.14,27.22a4.76,4.76,0,0,0-2.15,3.72v3c0,1.37,1,1.93,2.15,1.24l47.14-27.22a4.73,4.73,0,0,0,2.15-3.71Z" transform="translate(-452.35 -315)"/><path class="cls-116" d="M644.51,481.6c0-1.37-1-1.92-2.15-1.24l-47.14,27.22a4.76,4.76,0,0,0-2.15,3.72v2.56c0,1.37,1,1.93,2.15,1.24l47.14-27.22a4.73,4.73,0,0,0,2.15-3.71Z" transform="translate(-452.35 -315)"/><path class="cls-117" d="M644.51,481.61c0-1.37-1-1.93-2.15-1.24l-47.14,27.22a4.76,4.76,0,0,0-2.15,3.71v2.15c0,1.37,1,1.93,2.15,1.24l47.14-27.22a4.73,4.73,0,0,0,2.15-3.71Z" transform="translate(-452.35 -315)"/><path class="cls-118" d="M644.51,481.61c0-1.36-1-1.92-2.15-1.23l-47.14,27.21a4.79,4.79,0,0,0-2.15,3.72V513c0,1.37,1,1.93,2.15,1.24l47.14-27.22a4.73,4.73,0,0,0,2.15-3.71Z" transform="translate(-452.35 -315)"/><path class="cls-119" d="M644.51,481.62c0-1.36-1-1.92-2.15-1.24L595.22,507.6a4.79,4.79,0,0,0-2.15,3.72v1.32c0,1.36,1,1.92,2.15,1.23l47.14-27.21a4.76,4.76,0,0,0,2.15-3.72Z" transform="translate(-452.35 -315)"/><path class="cls-120" d="M644.51,481.63c0-1.36-1-1.92-2.15-1.24l-47.14,27.22a4.77,4.77,0,0,0-2.15,3.72v.9c0,1.36,1,1.92,2.15,1.24l47.14-27.22a4.76,4.76,0,0,0,2.15-3.72Z" transform="translate(-452.35 -315)"/><path class="cls-121" d="M644.51,481.64c0-1.36-1-1.92-2.15-1.24l-47.14,27.22a4.77,4.77,0,0,0-2.15,3.72v.48c0,1.36,1,1.92,2.15,1.24l47.14-27.22a4.76,4.76,0,0,0,2.15-3.72Z" transform="translate(-452.35 -315)"/><path class="cls-122" d="M644.51,481.65c0-1.36-1-1.92-2.15-1.24l-47.14,27.22a4.76,4.76,0,0,0-2.15,3.72v.06c0,1.36,1,1.92,2.15,1.24l47.14-27.22a4.76,4.76,0,0,0,2.15-3.72Z" transform="translate(-452.35 -315)"/><path class="cls-123" d="M644.51,481.66c0-1.37-1-1.92-2.15-1.24l-47.14,27.22a4.76,4.76,0,0,0-2.15,3.72V511c0,1.36,1,1.92,2.15,1.24L642.36,485a4.76,4.76,0,0,0,2.15-3.72Z" transform="translate(-452.35 -315)"/><path class="cls-2" d="M644.51,481.67c0-1.37-1-1.92-2.15-1.24l-47.14,27.22a4.76,4.76,0,0,0-2.15,3.72v-.78c0,1.36,1,1.92,2.15,1.24l47.14-27.22a4.76,4.76,0,0,0,2.15-3.72Z" transform="translate(-452.35 -315)"/></g><path class="cls-2" d="M644.51,436.51c0-1.36-1-1.92-2.15-1.24l-47.14,27.22a4.77,4.77,0,0,0-2.15,3.72v37.47c0,1.36,1,1.92,2.15,1.24l47.14-27.22a4.75,4.75,0,0,0,2.15-3.72Z" transform="translate(-452.35 -315)"/><path class="cls-54" d="M641.52,442.76c0-1.16-.82-1.64-1.83-1.06l-40,23.31a4.05,4.05,0,0,0-1.83,3.17v30c0,1.16.82,1.64,1.83,1.06l40-23.31a4.05,4.05,0,0,0,1.83-3.17Z" transform="translate(-452.35 -315)"/><path class="cls-124" d="M594.81,504.67V467.2a4.76,4.76,0,0,1,2.14-3.72l47.15-27.22a2.39,2.39,0,0,1,.37-.17c-.18-1-1.06-1.42-2.11-.82l-47.14,27.22a4.77,4.77,0,0,0-2.15,3.72v37.47c0,1.21.77,1.79,1.77,1.41A2.77,2.77,0,0,1,594.81,504.67Z" transform="translate(-452.35 -315)"/><polygon class="cls-59" points="147.3 153.58 166.44 142.53 166.44 156.8 147.3 167.85 147.3 153.58"/><polygon class="cls-125" points="147.3 170.75 187.95 147.22 187.95 149.31 147.3 172.84 147.3 170.75"/><polygon class="cls-125" points="147.3 174.93 187.95 151.4 187.95 153.5 147.3 177.03 147.3 174.93"/><polygon class="cls-125" points="147.3 179.12 170.6 165.62 170.6 167.71 147.3 181.21 147.3 179.12"/><polygon class="cls-125" points="168.05 144.57 187.95 133.04 187.95 139.83 168.05 151.37 168.05 144.57"/><path class="cls-2" d="M500.19,511.79l-.84-.24a4.61,4.61,0,0,0-4,.68l-.87-.64-.88,2-4.28-.36.93,3.8a.72.72,0,0,0,.49.51l1.75.51a4.27,4.27,0,0,0,4.16-1l3.9-3.71A.94.94,0,0,0,500.19,511.79Z" transform="translate(-452.35 -315)"/><path class="cls-126" d="M500.19,511.79l-.84-.24a4.61,4.61,0,0,0-4,.68l-.87-.64-.88,2-4.28-.36.48,2a2.54,2.54,0,0,0,1.74,1.82l.76.22a4.26,4.26,0,0,0,4.15-1l3.9-3.71a.4.4,0,0,0-.19-.77Z" transform="translate(-452.35 -315)"/><path class="cls-127" d="M494.17,513.22c.9-.86.66-1.84-.53-2.18a4.37,4.37,0,0,0-3.79.93,1.19,1.19,0,0,0,.54,2.18A4.36,4.36,0,0,0,494.17,513.22Z" transform="translate(-452.35 -315)"/><path class="cls-128" d="M491.82,513.35a1.41,1.41,0,0,1-1.41-1.41v-5.45a1.42,1.42,0,0,1,2.83,0v5.45A1.42,1.42,0,0,1,491.82,513.35Z" transform="translate(-452.35 -315)"/><path class="cls-129" d="M491.83,512.46h-.11a2.21,2.21,0,0,1-2.11-2.32l.6-13.32-.6-21.32a2.21,2.21,0,0,1,2.15-2.28c1.22-.05,3.63.93,3.67,2.15l-.78,21.49v.08l-.61,13.4A2.21,2.21,0,0,1,491.83,512.46Z" transform="translate(-452.35 -315)"/><path class="cls-2" d="M506.12,517.22l-.76-.44a4.65,4.65,0,0,0-4-.28l-.69-.83-1.35,1.78-4.07-1.38V520a.73.73,0,0,0,.35.61l1.59.92a4.28,4.28,0,0,0,4.27,0l4.68-2.68A.94.94,0,0,0,506.12,517.22Z" transform="translate(-452.35 -315)"/><path class="cls-126" d="M506.12,517.22l-.76-.44a4.65,4.65,0,0,0-4-.28l-.69-.83-1.35,1.78-4.07-1.38v2a2.52,2.52,0,0,0,1.26,2.19l.68.39a4.26,4.26,0,0,0,4.27,0l4.68-2.68a.92.92,0,0,0,.37-.39A1,1,0,0,0,506.12,517.22Z" transform="translate(-452.35 -315)"/><path class="cls-127" d="M499.93,517.18a1.19,1.19,0,0,0,0-2.25,4.38,4.38,0,0,0-3.9,0,1.19,1.19,0,0,0,0,2.25A4.38,4.38,0,0,0,499.93,517.18Z" transform="translate(-452.35 -315)"/><path class="cls-128" d="M498,517a1.41,1.41,0,0,1-1.41-1.41v-5.45a1.41,1.41,0,0,1,2.82,0v5.45A1.41,1.41,0,0,1,498,517Z" transform="translate(-452.35 -315)"/><path class="cls-126" d="M491.83,479.15a1.61,1.61,0,0,1-1.4-.81l-2.92-5a12.12,12.12,0,0,1,3.14-15.68l.8-.6a1.62,1.62,0,0,1,2,2.57l-.8.6a8.9,8.9,0,0,0-2.31,11.49l2.92,5.06a1.61,1.61,0,0,1-.59,2.2A1.56,1.56,0,0,1,491.83,479.15Z" transform="translate(-452.35 -315)"/><path class="cls-130" d="M489.76,481l-.15-5.54,8.87-3.41-.07,4.89a2.21,2.21,0,0,1,1.78,2l1.22,19.4-1.22,14.92a2.22,2.22,0,0,1-2.21,2,2,2,0,0,1-.71-.12,2.28,2.28,0,0,1-1.5-2.36L497,498.36l-2-13.12-4-2.27A2.31,2.31,0,0,1,489.76,481Z" transform="translate(-452.35 -315)"/><path class="cls-131" d="M500.19,479a2.22,2.22,0,0,0-2.35-2.08l-.15,0A2.22,2.22,0,0,1,499.6,479l1.22,19.4-1.22,14.92a2.21,2.21,0,0,1-1.92,2l.12,0H498a2.22,2.22,0,0,0,2.21-2l1.22-14.92Z" transform="translate(-452.35 -315)"/><path class="cls-132" d="M488.82,475.56l.22-2.12a29.46,29.46,0,0,0,.27-4.4,8.84,8.84,0,0,0,1,2.63l2.92,5.06a1.61,1.61,0,0,1-.59,2.2,1.56,1.56,0,0,1-.8.22,1.61,1.61,0,0,1-1.4-.81Z" transform="translate(-452.35 -315)"/><path class="cls-126" d="M489.18,449.15l7,4a10,10,0,0,1,5,8.65v19.84c-2.83,2-10.44-.77-12-3.88l.45-4.34a30.11,30.11,0,0,0,.26-5.2Z" transform="translate(-452.35 -315)"/><path class="cls-133" d="M39.53,129h8.21a0,0,0,0,1,0,0v5.56a3.91,3.91,0,0,1-3.91,3.91H39.53a0,0,0,0,1,0,0V129A0,0,0,0,1,39.53,129Z"/><path class="cls-133" d="M40.56,133.24H44a0,0,0,0,1,0,0v6a.82.82,0,0,1-.82.82h-1.8a.82.82,0,0,1-.82-.82v-6A0,0,0,0,1,40.56,133.24Z"/><path class="cls-132" d="M501.14,466.17a1.46,1.46,0,0,1-.91-1.18l-.65-5a1.61,1.61,0,0,0-1.81-1.39c-.88.11-.93,1-.81,1.93l.07,4.92a4.66,4.66,0,0,0,3.28,3.89,4.86,4.86,0,0,0,.83.16Z" transform="translate(-452.35 -315)"/><path class="cls-126" d="M501.71,468.62a4.9,4.9,0,0,1-1.4-.21,4.65,4.65,0,0,1-3.28-3.89l-.65-5a1.61,1.61,0,1,1,3.2-.41l.65,5a1.47,1.47,0,0,0,2.56.78l4.67-5.31a1.61,1.61,0,1,1,2.42,2.13L505.21,467A4.63,4.63,0,0,1,501.71,468.62Z" transform="translate(-452.35 -315)"/><path class="cls-133" d="M506.69,460.45l.77-.87a1.61,1.61,0,1,1,2.42,2.13l-.93,1.06Z" transform="translate(-452.35 -315)"/><path class="cls-133" d="M511.4,460.15a2,2,0,1,1-1.95-1.95A2,2,0,0,1,511.4,460.15Z" transform="translate(-452.35 -315)"/><path class="cls-133" d="M511.12,456.78l-2.46,2.58a.43.43,0,0,1-.6,0h0a.43.43,0,0,1,0-.6l2.46-2.59a.43.43,0,0,1,.6,0h0A.44.44,0,0,1,511.12,456.78Z" transform="translate(-452.35 -315)"/><path class="cls-2" d="M500.68,442.39c-1.42-1.68-4.73-1.19-6.57-.6-2.27.73-5.1,1.58-5.51,4.31a14.7,14.7,0,0,0,0,2.1,10.4,10.4,0,0,1-1.08,4.68c-1,2.07-1.53,3.38-.44,5.53.65,1.27,1.06,3.25,2.38,4s4.23,1.3,5.53.31c1.8-1.37,2.72-4.69,2.55-6.82-.18-2.3-1.33-4.63-.63-6.83.44-1.38,2.29-2.92,3.34-3.89S501.62,443.5,500.68,442.39Z" transform="translate(-452.35 -315)"/><path class="cls-134" d="M500.68,442.39a4.44,4.44,0,0,0-3.77-1.12,3.7,3.7,0,0,1,2.74,1.12c.94,1.11.47,2-.46,2.82s-2.9,2.51-3.34,3.89c-.7,2.2.45,4.53.63,6.83.16,2.13-.75,5.45-2.56,6.82a3,3,0,0,1-1.63.52,4,4,0,0,0,2.67-.52c1.8-1.37,2.72-4.69,2.55-6.82-.18-2.3-1.33-4.63-.63-6.83.44-1.38,2.29-2.92,3.34-3.89S501.62,443.5,500.68,442.39Z" transform="translate(-452.35 -315)"/><path class="cls-2" d="M577.48,508.67a4,4,0,0,1-4-4v-3.27a2.8,2.8,0,0,0-1.38-2.4l-3-1.75a.52.52,0,0,1-.19-.71.53.53,0,0,1,.71-.18l3,1.75a3.81,3.81,0,0,1,1.89,3.29v3.27a3,3,0,0,0,4.44,2.56l5.31-3.07a4.18,4.18,0,0,0,2.09-3.62V481.37a4.18,4.18,0,0,1,2.1-3.61l5.12-2.94a.51.51,0,1,1,.51.89L589,478.65a3.13,3.13,0,0,0-1.58,2.72v19.18a5.22,5.22,0,0,1-2.61,4.51l-5.31,3.07A4,4,0,0,1,577.48,508.67Z" transform="translate(-452.35 -315)"/><path class="cls-133" d="M614.57,478h0a.52.52,0,0,1-.74,0l-1.05-1a.52.52,0,0,1,0-.74h0a.52.52,0,0,1,.74,0l1,1A.52.52,0,0,1,614.57,478Z" transform="translate(-452.35 -315)"/><path class="cls-2" d="M629.21,528.13l-1.8-1.06v-.8l-1.88-.28-4.22-2.44a1.44,1.44,0,0,1,.23-2.6h0a3.17,3.17,0,0,1,2.47.13l3.26,1.58,4.5,1.66-.09,1.64a2.3,2.3,0,0,1-2.3,2.17Z" transform="translate(-452.35 -315)"/><path class="cls-135" d="M629.91,527.6h-.18l-1.8-1.05v-.81l-1.87-.27L621.83,523a1.43,1.43,0,0,1-.52-1.95,1.44,1.44,0,0,0,0,2.48l4.22,2.44,1.88.28v.8l1.8,1.06h.17a2.29,2.29,0,0,0,1.88-1A2.34,2.34,0,0,1,629.91,527.6Z" transform="translate(-452.35 -315)"/><path class="cls-2" d="M636.11,523.41l-1.81-1v-.81l-1.87-.27-4.22-2.45a1.44,1.44,0,0,1,.23-2.6h0a3.17,3.17,0,0,1,2.47.13l3.26,1.58,4.5,1.66-.09,1.64a2.3,2.3,0,0,1-2.3,2.17Z" transform="translate(-452.35 -315)"/><path class="cls-135" d="M636.81,522.89h-.18l-1.8-1.06V521l-1.87-.27-4.23-2.45a1.43,1.43,0,0,1-.52-1.95,1.44,1.44,0,0,0,0,2.48l4.22,2.45,1.87.27v.81l1.81,1h.17a2.29,2.29,0,0,0,1.88-1A2.28,2.28,0,0,1,636.81,522.89Z" transform="translate(-452.35 -315)"/><path class="cls-136" d="M636.3,521.26c-1.3,0-2.36-.53-2.36-1.84l-1.32-35.08c0-1.31,2.38-2.37,3.68-2.37a2.37,2.37,0,0,1,2.37,2.37v35.08C638.67,520.73,637.61,521.26,636.3,521.26Z" transform="translate(-452.35 -315)"/><path class="cls-137" d="M629.57,525.3c-1.23,0-2.26-.15-2.36-1.39l-1.33-20.53v-.17L627.21,484a2.36,2.36,0,0,1,2.52-2.2c1.3.09,5.58,1.25,5.49,2.56l-4,19.05.69,20.14c.1,1.3-.87,1.65-2.17,1.76Z" transform="translate(-452.35 -315)"/><path class="cls-133" d="M618.57,480.76c-.33,0-.67,0-1,0l-5.71-.29a1.58,1.58,0,1,1,.16-3.15l5.74.29a10.47,10.47,0,0,0,10.45-6.39l1.09-2.58a1.58,1.58,0,0,1,2.91,1.22l-1.08,2.58A13.63,13.63,0,0,1,618.57,480.76Z" transform="translate(-452.35 -315)"/><path class="cls-138" d="M638.89,465.38c-.33-2.24-2.43-3.71-4.42-2.63-.22.12-.43.25-.64.38a13.82,13.82,0,0,0-6.67,9.49,10.21,10.21,0,0,1-9.34,4.69l-2.17-.16a1.84,1.84,0,1,0-.27,3.67l2.17.16c.34,0,.68,0,1,0a13.86,13.86,0,0,0,8.28-2.75l.06,2.74-.78,29.14c.43.29,3.13,0,6-.69.25,0,.5-3.22.75-3.29s.47,3,.71,2.91c2.5-.71,4.8-1.68,5.35-2.77l-.4-31.12S639.42,469.1,638.89,465.38Z" transform="translate(-452.35 -315)"/><path class="cls-139" d="M631.37,472.5a13.84,13.84,0,0,1-4.52,5.77l0,1.35a13.85,13.85,0,0,0,4.3-6.45l.26-.85Z" transform="translate(-452.35 -315)"/><path class="cls-133" d="M634.06,465.88h0a1.16,1.16,0,0,1-1.16-1.16v-5.35h2.32v5.35A1.16,1.16,0,0,1,634.06,465.88Z" transform="translate(-452.35 -315)"/><path class="cls-133" d="M177.44,138.59h7a0,0,0,0,1,0,0v10a0,0,0,0,1,0,0h-3.66a3.34,3.34,0,0,1-3.34-3.34v-6.66A0,0,0,0,1,177.44,138.59Z"/><path class="cls-2" d="M639.08,458.73c0-.26,0-.52,0-.78a19.29,19.29,0,0,0-.05-3,3.93,3.93,0,0,0-2-3.08,5.51,5.51,0,0,0-2.25-.31l-4.66,0a3.71,3.71,0,0,0-2,.42c-1.1.75-.55,2.17.11,3a3.78,3.78,0,0,0,1.32,1.13c.51.24,1.37,0,1.69.56.45.7-.4,2.95.58,3.23.77.21.66-.58.78-1a.73.73,0,0,1,.57-.57c.36,0,.6.38.67.73a6.93,6.93,0,0,1-.16,2.12,2.24,2.24,0,0,0,.51,2,2,2,0,0,0,.67.36c.71.26,2,.57,2.64.06a3.58,3.58,0,0,0,1.62-2.67A17.3,17.3,0,0,0,639.08,458.73Z" transform="translate(-452.35 -315)"/><path class="cls-140" d="M678.92,455.52a15.34,15.34,0,0,0-13.87,0c-3.82,2.2-3.82,5.8,0,8a15.34,15.34,0,0,0,13.87,0C682.73,461.32,682.73,457.72,678.92,455.52Z" transform="translate(-452.35 -315)"/><path class="cls-141" d="M665.1,457.36h.78a5.31,5.31,0,0,1,1.27-1,11,11,0,0,1,9.92,0,5.05,5.05,0,0,1,1.26,1h.79v1.85h0a3.49,3.49,0,0,1-2,2.88,11,11,0,0,1-9.92,0,3.45,3.45,0,0,1-2-2.88h0Z" transform="translate(-452.35 -315)"/><path class="cls-142" d="M677.07,456.36a5.05,5.05,0,0,1,1.26,1h.79v1.85h0a3.49,3.49,0,0,1-2,2.88l-.13.07v-1.87l-1.34-4.58A7.8,7.8,0,0,1,677.07,456.36Z" transform="translate(-452.35 -315)"/><path class="cls-54" d="M677.07,454.49a11,11,0,0,0-9.92,0c-2.73,1.58-2.73,4.16,0,5.73a11,11,0,0,0,9.92,0C679.8,458.65,679.8,456.07,677.07,454.49Z" transform="translate(-452.35 -315)"/><path class="cls-143" d="M672.11,453.31a10.11,10.11,0,0,1,5,1.18c2.73,1.58,2.73,4.16,0,5.73l-.13.07-4.83-2.3Z" transform="translate(-452.35 -315)"/><ellipse class="cls-144" cx="204.32" cy="154.12" rx="9.09" ry="5.25"/><path class="cls-145" d="M649.63,466.47h.79a4.89,4.89,0,0,1,1.27-1,11,11,0,0,1,10,0,5.07,5.07,0,0,1,1.27,1h.79v1.86h0a3.46,3.46,0,0,1-2.05,2.89,11.08,11.08,0,0,1-10,0,3.49,3.49,0,0,1-2.06-2.89h0Z" transform="translate(-452.35 -315)"/><path class="cls-54" d="M661.66,463.59a11,11,0,0,0-10,0c-2.74,1.58-2.74,4.17,0,5.75a11,11,0,0,0,10,0C664.4,467.76,664.4,465.17,661.66,463.59Z" transform="translate(-452.35 -315)"/><path class="cls-146" d="M649.63,466.5v-1.61h.55a4.68,4.68,0,0,1,1.51-1.3c1.94-1.12.64,3.15,0,5.75v1.88a3.51,3.51,0,0,1-2.05-2.81Z" transform="translate(-452.35 -315)"/><path class="cls-134" d="M651.69,460.43a11.08,11.08,0,0,1,10,0l-5,3.4Z" transform="translate(-452.35 -315)"/><polygon class="cls-147" points="209.31 145.43 209.31 148.59 204.32 151.99 204.32 148.83 209.31 145.43"/><polygon class="cls-2" points="204.32 148.83 199.34 145.43 199.34 148.59 204.32 151.99 204.32 148.83"/><path class="cls-148" d="M651.69,462c-2.74,1.58-2.74,4.17,0,5.75l5-2.35Z" transform="translate(-452.35 -315)"/><polygon class="cls-149" points="204.32 150.41 204.32 151.99 199.34 154.34 199.34 152.76 204.32 150.41"/><g class="cls-5"><path class="cls-6" d="M636.64,398.86a.81.81,0,0,1,0-1.53L651.13,389a2.92,2.92,0,0,1,2.64,0l14.49,8.36a.81.81,0,0,1,0,1.53l-14.49,8.36a2.92,2.92,0,0,1-2.64,0Z" transform="translate(-452.35 -315)"/><path class="cls-7" d="M636.78,398.85a.8.8,0,0,1,0-1.52L651.14,389a2.94,2.94,0,0,1,2.62,0l14.37,8.29a.8.8,0,0,1,0,1.52l-14.37,8.29a2.88,2.88,0,0,1-2.62,0Z" transform="translate(-452.35 -315)"/><path class="cls-8" d="M636.91,398.84a.79.79,0,0,1,0-1.5l14.24-8.22a2.9,2.9,0,0,1,2.6,0L668,397.34a.79.79,0,0,1,0,1.5l-14.24,8.22a2.84,2.84,0,0,1-2.6,0Z" transform="translate(-452.35 -315)"/><path class="cls-9" d="M637,398.84a.79.79,0,0,1,0-1.49l14.12-8.15a2.86,2.86,0,0,1,2.58,0l14.12,8.15a.79.79,0,0,1,0,1.49L653.74,407a2.86,2.86,0,0,1-2.58,0Z" transform="translate(-452.35 -315)"/><path class="cls-10" d="M637.18,398.83a.78.78,0,0,1,0-1.48l14-8.08a2.88,2.88,0,0,1,2.56,0l14,8.08a.78.78,0,0,1,0,1.48l-14,8.08a2.82,2.82,0,0,1-2.56,0Z" transform="translate(-452.35 -315)"/><path class="cls-11" d="M637.31,398.82a.77.77,0,0,1,0-1.46l13.87-8a2.84,2.84,0,0,1,2.54,0l13.87,8a.77.77,0,0,1,0,1.46l-13.87,8a2.78,2.78,0,0,1-2.54,0Z" transform="translate(-452.35 -315)"/><path class="cls-12" d="M637.44,398.82a.77.77,0,0,1,0-1.45l13.75-7.94a2.8,2.8,0,0,1,2.52,0l13.75,7.94a.77.77,0,0,1,0,1.45l-13.75,7.94a2.8,2.8,0,0,1-2.52,0Z" transform="translate(-452.35 -315)"/><path class="cls-13" d="M637.58,398.81a.76.76,0,0,1,0-1.44l13.63-7.87a2.8,2.8,0,0,1,2.49,0l13.62,7.87a.76.76,0,0,1,0,1.44l-13.62,7.87a2.8,2.8,0,0,1-2.49,0Z" transform="translate(-452.35 -315)"/><path class="cls-14" d="M637.71,398.8a.75.75,0,0,1,0-1.42l13.51-7.8a2.73,2.73,0,0,1,2.46,0l13.51,7.8a.75.75,0,0,1,0,1.42l-13.5,7.8a2.75,2.75,0,0,1-2.47,0Z" transform="translate(-452.35 -315)"/><path class="cls-15" d="M637.84,398.8a.75.75,0,0,1,0-1.41l13.39-7.73a2.69,2.69,0,0,1,2.44,0l13.39,7.73a.75.75,0,0,1,0,1.41l-13.39,7.73a2.75,2.75,0,0,1-2.44,0Z" transform="translate(-452.35 -315)"/><path class="cls-16" d="M638,398.79a.74.74,0,0,1,0-1.4l13.26-7.65a2.65,2.65,0,0,1,2.42,0l13.26,7.65a.74.74,0,0,1,0,1.4l-13.26,7.66a2.71,2.71,0,0,1-2.42,0Z" transform="translate(-452.35 -315)"/><path class="cls-17" d="M638.11,398.79a.74.74,0,0,1,0-1.39l13.14-7.59a2.67,2.67,0,0,1,2.4,0l13.14,7.59a.74.74,0,0,1,0,1.39l-13.14,7.58a2.67,2.67,0,0,1-2.4,0Z" transform="translate(-452.35 -315)"/><path class="cls-18" d="M638.24,398.78a.73.73,0,0,1,0-1.37l13-7.52a2.63,2.63,0,0,1,2.38,0l13,7.52a.73.73,0,0,1,0,1.37l-13,7.51a2.63,2.63,0,0,1-2.38,0Z" transform="translate(-452.35 -315)"/><path class="cls-19" d="M638.38,398.77a.72.72,0,0,1,0-1.36L651.27,390a2.59,2.59,0,0,1,2.36,0l12.89,7.44a.72.72,0,0,1,0,1.36l-12.89,7.45a2.65,2.65,0,0,1-2.36,0Z" transform="translate(-452.35 -315)"/><path class="cls-20" d="M638.51,398.77a.71.71,0,0,1,0-1.35L651.28,390a2.61,2.61,0,0,1,2.34,0l12.77,7.38a.71.71,0,0,1,0,1.35l-12.77,7.37a2.61,2.61,0,0,1-2.34,0Z" transform="translate(-452.35 -315)"/><path class="cls-21" d="M638.64,398.76a.71.71,0,0,1,0-1.34l12.65-7.3a2.56,2.56,0,0,1,2.32,0l12.65,7.3a.71.71,0,0,1,0,1.34l-12.65,7.3a2.56,2.56,0,0,1-2.32,0Z" transform="translate(-452.35 -315)"/><path class="cls-22" d="M638.78,398.75a.7.7,0,0,1,0-1.32l12.53-7.23a2.5,2.5,0,0,1,2.29,0l12.52,7.23a.7.7,0,0,1,0,1.32L653.6,406a2.56,2.56,0,0,1-2.29,0Z" transform="translate(-452.35 -315)"/><path class="cls-23" d="M638.91,398.75a.69.69,0,0,1,0-1.31l12.41-7.17a2.5,2.5,0,0,1,2.26,0L666,397.44a.69.69,0,0,1,0,1.31l-12.41,7.16a2.5,2.5,0,0,1-2.26,0Z" transform="translate(-452.35 -315)"/><path class="cls-24" d="M639,398.74a.69.69,0,0,1,0-1.3l12.29-7.09a2.46,2.46,0,0,1,2.24,0l12.29,7.09a.69.69,0,0,1,0,1.3l-12.29,7.09a2.46,2.46,0,0,1-2.24,0Z" transform="translate(-452.35 -315)"/><path class="cls-25" d="M639.18,398.73a.68.68,0,0,1,0-1.28l12.16-7a2.48,2.48,0,0,1,2.22,0l12.16,7a.67.67,0,0,1,0,1.28l-12.16,7a2.48,2.48,0,0,1-2.22,0Z" transform="translate(-452.35 -315)"/><path class="cls-26" d="M639.31,398.73a.67.67,0,0,1,0-1.27l12-6.95a2.44,2.44,0,0,1,2.2,0l12,6.95a.67.67,0,0,1,0,1.27l-12,6.95a2.44,2.44,0,0,1-2.2,0Z" transform="translate(-452.35 -315)"/><path class="cls-27" d="M639.44,398.72a.67.67,0,0,1,0-1.26l11.92-6.88a2.46,2.46,0,0,1,2.18,0l11.92,6.88a.67.67,0,0,1,0,1.26l-11.92,6.88a2.39,2.39,0,0,1-2.18,0Z" transform="translate(-452.35 -315)"/><path class="cls-28" d="M639.58,398.71a.65.65,0,0,1,0-1.24l11.79-6.81a2.41,2.41,0,0,1,2.16,0l11.79,6.81a.65.65,0,0,1,0,1.24l-11.79,6.81a2.35,2.35,0,0,1-2.16,0Z" transform="translate(-452.35 -315)"/><path class="cls-29" d="M639.71,398.71a.65.65,0,0,1,0-1.23l11.67-6.74a2.37,2.37,0,0,1,2.14,0l11.67,6.74a.65.65,0,0,1,0,1.23l-11.67,6.74a2.37,2.37,0,0,1-2.14,0Z" transform="translate(-452.35 -315)"/><path class="cls-30" d="M639.84,398.7a.65.65,0,0,1,0-1.22l11.56-6.67a2.37,2.37,0,0,1,2.11,0l11.55,6.67a.65.65,0,0,1,0,1.22l-11.55,6.67a2.31,2.31,0,0,1-2.11,0Z" transform="translate(-452.35 -315)"/><path class="cls-31" d="M640,398.69a.63.63,0,0,1,0-1.2l11.43-6.6a2.33,2.33,0,0,1,2.09,0l11.42,6.6a.63.63,0,0,1,0,1.2l-11.42,6.6a2.33,2.33,0,0,1-2.09,0Z" transform="translate(-452.35 -315)"/><path class="cls-32" d="M640.11,398.69a.63.63,0,0,1,0-1.19L651.42,391a2.27,2.27,0,0,1,2.06,0l11.31,6.53a.63.63,0,0,1,0,1.19l-11.31,6.53a2.33,2.33,0,0,1-2.06,0Z" transform="translate(-452.35 -315)"/><path class="cls-33" d="M640.24,398.68a.62.62,0,0,1,0-1.18L651.43,391a2.29,2.29,0,0,1,2,0l11.19,6.46a.62.62,0,0,1,0,1.18l-11.19,6.46a2.29,2.29,0,0,1-2,0Z" transform="translate(-452.35 -315)"/><path class="cls-34" d="M640.38,398.68c-.56-.33-.56-.85,0-1.17l11.06-6.39a2.25,2.25,0,0,1,2,0l11.06,6.39c.56.32.56.84,0,1.17l-11.06,6.38a2.25,2.25,0,0,1-2,0Z" transform="translate(-452.35 -315)"/><path class="cls-35" d="M640.51,398.67a.61.61,0,0,1,0-1.16l10.94-6.31a2.2,2.2,0,0,1,2,0l10.94,6.31a.61.61,0,0,1,0,1.16L653.45,405a2.27,2.27,0,0,1-2,0Z" transform="translate(-452.35 -315)"/><path class="cls-36" d="M640.64,398.66a.6.6,0,0,1,0-1.14l10.82-6.24a2.16,2.16,0,0,1,2,0l10.82,6.24a.6.6,0,0,1,0,1.14l-10.82,6.25a2.22,2.22,0,0,1-2,0Z" transform="translate(-452.35 -315)"/><path class="cls-37" d="M640.78,398.66a.6.6,0,0,1,0-1.13l10.69-6.18a2.18,2.18,0,0,1,2,0l10.69,6.18a.6.6,0,0,1,0,1.13l-10.69,6.17a2.18,2.18,0,0,1-2,0Z" transform="translate(-452.35 -315)"/><path class="cls-38" d="M640.91,398.65a.59.59,0,0,1,0-1.12l10.57-6.1a2.14,2.14,0,0,1,1.94,0l10.57,6.1a.59.59,0,0,1,0,1.12l-10.57,6.1a2.14,2.14,0,0,1-1.94,0Z" transform="translate(-452.35 -315)"/><path class="cls-39" d="M641,398.64a.58.58,0,0,1,0-1.1l10.46-6a2.08,2.08,0,0,1,1.91,0l10.45,6a.58.58,0,0,1,0,1.1l-10.45,6a2.14,2.14,0,0,1-1.91,0Z" transform="translate(-452.35 -315)"/><path class="cls-40" d="M641.18,398.64a.58.58,0,0,1,0-1.09l10.33-6a2.08,2.08,0,0,1,1.88,0l10.33,6a.58.58,0,0,1,0,1.09l-10.33,6a2.08,2.08,0,0,1-1.88,0Z" transform="translate(-452.35 -315)"/><path class="cls-41" d="M641.31,398.63a.57.57,0,0,1,0-1.08l10.21-5.89a2,2,0,0,1,1.86,0l10.21,5.89a.57.57,0,0,1,0,1.08l-10.21,5.89a2,2,0,0,1-1.86,0Z" transform="translate(-452.35 -315)"/><path class="cls-42" d="M641.44,398.62a.56.56,0,0,1,0-1.06l10.09-5.82a2,2,0,0,1,1.84,0l10.09,5.82a.56.56,0,0,1,0,1.06l-10.09,5.83a2.05,2.05,0,0,1-1.84,0Z" transform="translate(-452.35 -315)"/><path class="cls-43" d="M641.58,398.62a.56.56,0,0,1,0-1.05l10-5.76a2.08,2.08,0,0,1,1.82,0l10,5.76a.55.55,0,0,1,0,1.05l-10,5.75a2,2,0,0,1-1.82,0Z" transform="translate(-452.35 -315)"/><path class="cls-44" d="M641.71,398.61a.55.55,0,0,1,0-1l9.84-5.68a2,2,0,0,1,1.8,0l9.84,5.68a.55.55,0,0,1,0,1l-9.84,5.68a2,2,0,0,1-1.8,0Z" transform="translate(-452.35 -315)"/><path class="cls-45" d="M641.84,398.6a.54.54,0,0,1,0-1l9.72-5.61a2,2,0,0,1,1.78,0l9.72,5.61a.54.54,0,0,1,0,1l-9.72,5.62a2,2,0,0,1-1.78,0Z" transform="translate(-452.35 -315)"/><path class="cls-46" d="M642,398.6a.53.53,0,0,1,0-1l9.59-5.54a2,2,0,0,1,1.76,0l9.59,5.54c.49.27.49.73,0,1l-9.59,5.54a2,2,0,0,1-1.76,0Z" transform="translate(-452.35 -315)"/><path class="cls-2" d="M642.11,398.59a.53.53,0,0,1,0-1l9.48-5.47a2,2,0,0,1,1.73,0l9.47,5.47c.48.28.48.73,0,1l-9.47,5.47a1.89,1.89,0,0,1-1.73,0Z" transform="translate(-452.35 -315)"/></g><polygon class="cls-150" points="200.28 61.77 188.02 68.85 200.28 75.93 200.28 61.77 200.28 61.77"/><polygon class="cls-59" points="200.28 61.77 200.28 75.93 212.54 68.85 200.28 61.77"/><polygon class="cls-59" points="188.02 68.85 188.02 83 200.28 90.08 200.28 75.93 188.02 68.85"/><polygon class="cls-150" points="200.28 90.08 212.54 83 212.54 68.85 200.28 75.93 200.28 90.08"/><polygon class="cls-151" points="188.02 68.85 183.52 63.31 195.78 56.23 200.28 61.77 188.02 68.85"/><polygon class="cls-151" points="212.54 68.85 217.04 63.31 204.78 56.23 200.28 61.77 212.54 68.85"/><polygon class="cls-132" points="212.54 75.22 212.54 69.51 200.28 75.94 203.54 80.46 212.54 75.22"/><polygon class="cls-151" points="200.29 75.94 204.02 79.47 216.28 72.38 212.54 68.85 200.29 75.94"/><polygon class="cls-132" points="188.02 69.6 188.02 75.28 197.03 80.46 200.28 75.95 200.28 75.94 188.03 69.59 188.02 69.6"/><polygon class="cls-151" points="200.28 75.94 196.55 79.47 184.3 72.38 188.03 68.85 200.28 75.94"/><path class="cls-152" d="M646,383.29a14.62,14.62,0,0,1,13.17,0c3.63,2.09,3.63,5.51,0,7.61a14.62,14.62,0,0,1-13.17,0C642.38,388.8,642.38,385.38,646,383.29Z" transform="translate(-452.35 -315)"/><path class="cls-2" d="M654.52,382.38l-.38.31h-3.27l-.36-.32a5.12,5.12,0,0,1-1.65-3.76v-1.42h7.49v1.28A5.1,5.1,0,0,1,654.52,382.38Z" transform="translate(-452.35 -315)"/><path class="cls-2" d="M653.08,383.7h-1.22a1.09,1.09,0,0,1-1.09-1.09h3.4A1.09,1.09,0,0,1,653.08,383.7Z" transform="translate(-452.35 -315)"/><path class="cls-153" d="M655.24,375.67a5.87,5.87,0,0,0-5.29,0c-1.45.84-1.45,2.21,0,3.05a5.87,5.87,0,0,0,5.29,0C656.69,377.88,656.69,376.51,655.24,375.67Z" transform="translate(-452.35 -315)"/><path class="cls-154" d="M652.61,363.15a6.84,6.84,0,0,0-3.74,12.56v1.55h0a1.91,1.91,0,0,0,1.11,1.47,5.83,5.83,0,0,0,5.27,0,1.86,1.86,0,0,0,1.07-1.46h0v-1.55a6.84,6.84,0,0,0-3.74-12.56Z" transform="translate(-452.35 -315)"/><path class="cls-54" d="M648.78,370.74a4.48,4.48,0,0,1,4.47-4.48c2.29,0,2.11-1.9-.8-1.9a5.27,5.27,0,0,0-5.28,5.27C647.17,371.48,648.78,372.3,648.78,370.74Z" transform="translate(-452.35 -315)"/><path class="cls-155" d="M655.25,379.32a5.89,5.89,0,0,1-5.27,0,1.91,1.91,0,0,1-1.11-1.47v.51a1.91,1.91,0,0,0,1.11,1.47,5.83,5.83,0,0,0,5.27,0,1.86,1.86,0,0,0,1.07-1.46h0v-.51h0A1.86,1.86,0,0,1,655.25,379.32Z" transform="translate(-452.35 -315)"/><path class="cls-155" d="M655.23,380.81a5.89,5.89,0,0,1-5.27,0,2.59,2.59,0,0,1-.9-.82,4.6,4.6,0,0,0,.38.95,2.58,2.58,0,0,0,.52.38,5.89,5.89,0,0,0,5.27,0,2.74,2.74,0,0,0,.43-.3,4.89,4.89,0,0,0,.45-1A2.24,2.24,0,0,1,655.23,380.81Z" transform="translate(-452.35 -315)"/><path class="cls-156" d="M652.58,362.58h0A.56.56,0,0,1,652,362l0-4.27a.56.56,0,0,1,.55-.56h0a.57.57,0,0,1,.55.56l0,4.28A.56.56,0,0,1,652.58,362.58Zm4.57.81,2.16-3.69a.56.56,0,1,0-1-.56l-2.16,3.69a.54.54,0,0,0,.2.76.57.57,0,0,0,.28.08A.55.55,0,0,0,657.15,363.39Zm2.79,3.19,3.71-2.11a.56.56,0,1,0-.55-1l-3.71,2.11a.55.55,0,0,0-.21.76.56.56,0,0,0,.48.29A.6.6,0,0,0,659.94,366.58Zm-13.88-.25a.57.57,0,0,0-.2-.77l-3.66-2.19a.56.56,0,1,0-.58,1l3.67,2.19a.51.51,0,0,0,.29.08A.57.57,0,0,0,646.06,366.33Zm2.8-2.76a.56.56,0,0,0,.22-.76L647,359.07a.54.54,0,0,0-.75-.21.55.55,0,0,0-.22.75l2.08,3.74a.56.56,0,0,0,.48.29A.64.64,0,0,0,648.86,363.57Z" transform="translate(-452.35 -315)"/></g></g></svg>